<svg width="25" height="29" viewBox="0 0 25 29" fill="none" xmlns="http://www.w3.org/2000/svg">
<path d="M1 7.63086V27.4257C1 27.7528 1.26164 28.0144 1.5887 28.0144H18.3502C18.6772 28.0144 18.9389 27.7528 18.9389 27.4257V7.63086H1Z" fill="#263238" stroke="#263238" stroke-width="0.045702" stroke-miterlimit="10"/>
<path d="M18.7999 27.4341H2.0384C1.71135 27.4341 1.44971 27.1724 1.44971 26.8454V3.7718C1.44971 3.44475 1.71135 3.18311 2.0384 3.18311H18.7999C19.1269 3.18311 19.3886 3.44475 19.3886 3.7718V26.8454C19.3967 27.1643 19.1269 27.4341 18.7999 27.4341Z" fill="#FFBD3F" stroke="#263238" stroke-width="0.045702" stroke-miterlimit="10" stroke-linecap="round" stroke-linejoin="round"/>
<path d="M18.7262 3.48535H2.12012V26.5426H18.7262V3.48535Z" fill="white" stroke="#263238" stroke-width="0.045702" stroke-miterlimit="10" stroke-linecap="round" stroke-linejoin="round"/>
<path d="M11.2777 1.97298V1.78493C11.2777 1.35158 10.9261 1 10.4928 1H10.3456C9.91226 1 9.56068 1.35158 9.56068 1.78493V1.97298C9.56068 2.2101 9.37263 2.39815 9.13551 2.39815H7.73736C7.38578 2.39815 7.09961 2.68432 7.09961 3.03591V4.16424H13.747V3.03591C13.747 2.68432 13.4608 2.39815 13.1092 2.39815H11.7029C11.4658 2.39815 11.2777 2.2101 11.2777 1.97298Z" fill="#263238" stroke="#263238" stroke-width="0.045702" stroke-miterlimit="10" stroke-linecap="round" stroke-linejoin="round"/>
<path d="M4.93292 9.54443H3.86182V10.6155H4.93292V9.54443Z" fill="white" stroke="#263238" stroke-width="0.045702" stroke-miterlimit="10" stroke-linecap="round" stroke-linejoin="round"/>
<path d="M14.7607 10.1494H16.4614" stroke="#263238" stroke-width="0.045702" stroke-miterlimit="10"/>
<path d="M6.08569 10.1494H13.9431" stroke="#263238" stroke-width="0.045702" stroke-miterlimit="10"/>
<path d="M4.93292 12.1279H3.86182V13.199H4.93292V12.1279Z" fill="white" stroke="#263238" stroke-width="0.045702" stroke-miterlimit="10" stroke-linecap="round" stroke-linejoin="round"/>
<path d="M6.08569 12.7329H16.4615" stroke="#263238" stroke-width="0.045702" stroke-miterlimit="10"/>
<path d="M4.93292 14.7114H3.86182V15.7825H4.93292V14.7114Z" fill="white" stroke="#263238" stroke-width="0.045702" stroke-miterlimit="10" stroke-linecap="round" stroke-linejoin="round"/>
<path d="M6.08569 15.3169H16.4615" stroke="#263238" stroke-width="0.045702" stroke-miterlimit="10"/>
<path d="M4.93292 17.5H3.86182V18.5711H4.93292V17.5Z" fill="white" stroke="#263238" stroke-width="0.045702" stroke-miterlimit="10" stroke-linecap="round" stroke-linejoin="round"/>
<path d="M7.71265 18.0967H16.4613" stroke="#263238" stroke-width="0.045702" stroke-miterlimit="10"/>
<path d="M6.08569 18.0967H7.19767" stroke="#263238" stroke-width="0.045702" stroke-miterlimit="10"/>
<path d="M23.1498 23.4766H4.426C4.15619 23.4766 3.93542 23.2558 3.93542 22.986V20.2469C3.93542 19.9771 4.15619 19.7563 4.426 19.7563H23.1498C23.4196 19.7563 23.6404 19.9771 23.6404 20.2469V22.986C23.6404 23.2558 23.4196 23.4766 23.1498 23.4766Z" fill="#263238" stroke="#263238" stroke-width="0.045702" stroke-miterlimit="10" stroke-linecap="round" stroke-linejoin="round"/>
<path d="M23.5094 22.9863H4.78562C4.5158 22.9863 4.29504 22.7656 4.29504 22.4958V19.7567C4.29504 19.4869 4.5158 19.2661 4.78562 19.2661H23.5094C23.7792 19.2661 24 19.4869 24 19.7567V22.4958C24 22.7656 23.7792 22.9863 23.5094 22.9863Z" fill="#FFBD3F" stroke="#263238" stroke-width="0.045702" stroke-miterlimit="10" stroke-linecap="round" stroke-linejoin="round"/>
<path d="M7.14034 19.814L7.46739 20.8197H8.53032L7.6718 21.4492L7.99886 22.4549L7.14034 21.8335L6.28183 22.4549L6.60888 21.4492L5.75037 20.8197H6.81329L7.14034 19.814Z" fill="#263238" stroke="#263238" stroke-width="0.045702" stroke-miterlimit="10" stroke-linecap="round" stroke-linejoin="round"/>
<path d="M10.6727 19.814L10.9997 20.8197H12.0545L11.196 21.4492L11.5312 22.4549L10.6727 21.8335L9.81418 22.4549L10.1412 21.4492L9.28271 20.8197H10.3456L10.6727 19.814Z" fill="#263238" stroke="#263238" stroke-width="0.045702" stroke-miterlimit="10" stroke-linecap="round" stroke-linejoin="round"/>
<path d="M14.1965 19.814L14.5317 20.8197H15.5865L14.728 21.4492L15.055 22.4549L14.1965 21.8335L13.3462 22.4549L13.6732 21.4492L12.8147 20.8197H13.8694L14.1965 19.814Z" fill="#263238" stroke="#263238" stroke-width="0.045702" stroke-miterlimit="10" stroke-linecap="round" stroke-linejoin="round"/>
<path d="M17.7287 19.814L18.0558 20.8197H19.1187L18.2602 21.4492L18.5872 22.4549L17.7287 21.8335L16.8702 22.4549L17.1973 21.4492L16.3469 20.8197H17.4017L17.7287 19.814Z" fill="white" stroke="#263238" stroke-width="0.045702" stroke-miterlimit="10" stroke-linecap="round" stroke-linejoin="round"/>
<path d="M21.2608 19.814L21.5879 20.8197H22.6508L21.7923 21.4492L22.1193 22.4549L21.2608 21.8335L20.4023 22.4549L20.7294 21.4492L19.8708 20.8197H20.9338L21.2608 19.814Z" fill="white" stroke="#263238" stroke-width="0.045702" stroke-miterlimit="10" stroke-linecap="round" stroke-linejoin="round"/>
<path d="M6.93604 6.43713L7.31214 6.38807C7.31214 6.63336 7.36938 6.69059 7.44297 6.69059C7.50838 6.69059 7.51655 6.62518 7.51655 6.5843C7.51655 6.43713 7.44297 6.34719 7.31214 6.2409L7.19768 6.14278C7.05868 6.02014 6.93604 5.88114 6.93604 5.6522C6.93604 5.33332 7.14044 5.16162 7.4675 5.16162C7.88449 5.16162 7.91719 5.50503 7.91719 5.68491L7.53291 5.72579C7.53291 5.57044 7.53291 5.4805 7.45114 5.4805C7.39391 5.4805 7.36938 5.56226 7.36938 5.60314C7.36938 5.74214 7.45114 5.81573 7.55743 5.91384L7.66373 6.00378C7.82725 6.14278 7.9499 6.29813 7.9499 6.55977C7.9499 6.81324 7.76184 7.02582 7.4675 7.02582C7.11591 7.01765 6.94421 6.8623 6.93604 6.43713Z" fill="#263238"/>
<path d="M8.12976 6.44519V5.18604H8.57128V6.52695C8.57128 6.60872 8.57946 6.71501 8.67758 6.71501C8.78387 6.71501 8.78387 6.60872 8.78387 6.52695V5.18604H9.22539V6.44519C9.22539 6.8213 9.09457 7.01753 8.67758 7.01753C8.26058 7.01753 8.12976 6.8213 8.12976 6.44519Z" fill="#263238"/>
<path d="M9.48706 5.18604H10.0267C10.3865 5.18604 10.6481 5.27597 10.6481 5.66026C10.6481 5.8892 10.6072 6.0282 10.4273 6.12631L10.6726 6.993H10.2066L10.0185 6.19172H9.92858V6.993H9.48706V5.18604ZM10.0431 5.94643C10.1984 5.94643 10.2311 5.84014 10.2311 5.70932C10.2311 5.57032 10.1902 5.48038 10.0594 5.48038H9.92041V5.95461H10.0431V5.94643Z" fill="#263238"/>
<path d="M10.7708 5.18604H11.1387L11.3104 6.37978L11.4657 5.18604H11.8664L11.5557 6.993H11.0733L10.7708 5.18604Z" fill="#263238"/>
<path d="M12.0461 5.18604H12.8883V5.48038H12.4877V5.88102H12.7902V6.19172H12.4877V6.69866H12.8965V6.993H12.0461V5.18604Z" fill="#263238"/>
<path d="M13.2809 6.22443L12.9539 5.18604H13.3709L13.5098 5.66844L13.6243 5.18604H14.025L13.6979 6.22443V6.993H13.2727V6.22443H13.2809Z" fill="#263238"/>
</svg>
