<svg width="1024" height="1024" viewBox="0 0 1024 1024" fill="none" xmlns="http://www.w3.org/2000/svg">
<g clip-path="url(#clip0_4_41)">
<path fill-rule="evenodd" clip-rule="evenodd" d="M0.000299454 1023.93V1013.66L0.344474 1012.03C0.665657 1010.85 0.963964 1009.36 1.26279 1007.59C1.58397 1005.6 1.85929 1003.11 2.11224 1000.11C2.36462 997.02 2.57108 993.325 2.70874 989.049C2.8464 984.657 2.91526 979.545 2.91526 973.666V904.973C2.91526 899.093 2.8464 893.981 2.70874 889.589C2.59402 885.313 2.38756 881.595 2.11224 878.481C1.85986 875.483 1.58454 872.973 1.26279 870.952C0.964536 869.186 0.666286 867.699 0.344474 866.513L0.000299454 865.305V855.033L8.90565 854.615L42.7144 854.614V864.885L42.3703 866.512C42.0261 867.744 41.7049 869.278 41.3831 871.113C41.062 873.065 40.7866 875.482 40.5566 878.387C40.3042 881.571 40.0978 885.336 39.9601 889.681C39.7766 894.05 39.7077 899.162 39.7077 904.995V973.688C39.7077 979.544 39.7995 984.633 39.9601 989.002C40.1207 993.348 40.3272 997.089 40.5566 1000.23C40.7631 1003.11 41.0385 1005.53 41.3831 1007.45C41.7043 1009.27 42.0256 1010.8 42.3703 1012.06L42.7144 1013.26V1023.54L33.8091 1023.95H0.000299454V1023.93Z" fill="black"/>
<path fill-rule="evenodd" clip-rule="evenodd" d="M136.564 1023.93V1013.66L136.908 1012.03C137.252 1010.8 137.573 1009.27 137.895 1007.43C138.216 1005.48 138.492 1003.09 138.722 1000.2C138.974 997.066 139.181 993.325 139.318 988.979C139.502 984.61 139.571 979.498 139.571 973.665V943.803C139.571 935.042 137.735 931.022 136.174 929.186C134.2 926.839 131.698 925.793 128.141 925.793C127.291 925.793 125.777 925.956 123.482 926.746C121.14 927.537 118.731 928.629 116.298 929.953C113.681 931.371 111.11 932.997 108.517 934.88C106.934 936.018 105.419 937.204 103.927 938.458L103.789 948.288V973.688C103.789 979.568 103.858 984.68 103.996 989.072C104.111 993.348 104.317 997.043 104.592 1000.13C104.845 1003.11 105.12 1005.59 105.442 1007.62C105.74 1009.38 106.038 1010.87 106.36 1012.05L106.704 1013.26V1023.53L97.7989 1023.95L64.8172 1023.95V1013.68L65.1614 1012.06C65.5055 1010.82 65.8267 1009.29 66.1485 1007.45C66.4697 1005.5 66.745 1003.11 66.975 1000.23C67.2274 997.09 67.4338 993.348 67.5715 989.002C67.755 984.633 67.8239 979.521 67.8239 973.688V948.149C67.8239 942.293 67.7321 937.204 67.5715 932.835C67.4109 928.489 67.2044 924.748 66.975 921.611C66.7685 918.729 66.4932 916.312 66.1485 914.384C65.8273 912.571 65.506 911.037 65.1614 909.782L64.8172 908.574V898.302L73.7225 897.884H106.704V905.413C108.104 904.577 109.481 903.81 110.904 903.066C114.921 900.952 119.006 899.232 123.206 897.931C127.727 896.513 132.249 895.793 136.679 895.793C143.45 895.793 149.44 897.071 154.443 899.581C159.401 902.068 163.555 905.437 166.768 909.597C169.867 913.618 172.162 918.265 173.562 923.378C174.848 928.118 175.49 932.974 175.49 937.855V973.735C175.49 979.615 175.559 984.727 175.697 989.119C175.811 993.395 176.018 997.09 176.293 1000.18C176.546 1003.15 176.821 1005.64 177.143 1007.66C177.441 1009.43 177.739 1010.92 178.061 1012.1L178.405 1013.31V1023.58L169.5 1024H136.518L136.564 1023.93H136.564Z" fill="black"/>
<path fill-rule="evenodd" clip-rule="evenodd" d="M264.108 1023.93C254.79 1023.93 246.137 1022.42 238.425 1019.45C230.53 1016.4 223.667 1011.94 218.021 1006.18C212.397 1000.44 208.014 993.418 205.007 985.331C202.069 977.407 200.577 968.483 200.577 958.792C200.577 949.683 202.207 941.084 205.42 933.23C208.656 925.352 213.246 918.404 219.076 912.594C224.883 906.785 231.86 902.183 239.802 898.953C247.72 895.723 256.442 894.073 265.76 894.073C269.111 894.073 272.44 894.352 275.791 894.933C279.095 895.491 282.309 896.305 285.454 897.374C286.326 897.652 287.175 897.978 288.024 898.303V896.514C288.024 890.635 287.955 885.523 287.818 881.13C287.703 876.854 287.497 873.16 287.221 870.069C286.969 867.095 286.694 864.608 286.372 862.586C286.074 860.82 285.775 859.333 285.454 858.148L285.109 856.939V846.668L294.014 846.249L326.996 846.248V856.52L326.652 858.146C326.308 859.378 325.986 860.912 325.665 862.748C325.343 864.7 325.068 867.093 324.838 869.975C324.586 873.112 324.379 876.854 324.242 881.2C324.058 885.568 323.989 890.681 323.989 896.514V971.76C323.989 977.616 324.081 982.705 324.242 987.074C324.402 991.42 324.609 995.161 324.838 998.299C325.045 1001.18 325.32 1003.6 325.665 1005.53C325.986 1007.34 326.307 1008.87 326.652 1010.13L326.996 1011.34V1021.61L318.091 1022.03L286.165 1022.02V1020.51C285.981 1020.58 285.798 1020.65 285.614 1020.7C279.371 1022.84 272.141 1023.93 264.108 1023.93V1023.93ZM267.551 919.775C263.328 919.775 259.449 920.519 255.96 921.983C252.564 923.423 249.763 925.421 247.353 928.094C244.897 930.836 242.924 934.345 241.478 938.481C239.986 942.804 239.228 947.893 239.228 953.61C239.228 960.419 239.986 966.786 241.455 972.573C242.855 978.08 244.92 982.867 247.56 986.818C250.016 990.49 252.954 993.255 256.557 995.3C260.045 997.252 264.039 998.228 268.813 998.228C271.269 998.228 273.587 997.95 275.676 997.368C277.925 996.764 279.991 995.974 281.827 995.044C283.663 994.114 285.224 993.116 286.555 992.07C286.991 991.721 287.404 991.373 287.794 991.024C287.863 988.956 287.932 986.748 287.978 984.355C288.047 980.543 288.093 976.338 288.093 971.76V934.136C286.05 929.303 283.365 925.747 280.106 923.517C276.387 920.984 272.302 919.775 267.596 919.775H267.551L267.551 919.775Z" fill="black"/>
<path fill-rule="evenodd" clip-rule="evenodd" d="M349.144 1023.93V1013.57L349.534 1011.89C349.856 1010.78 350.177 1009.41 350.499 1007.78C350.82 1006.01 351.095 1003.83 351.325 1001.23C351.555 998.321 351.761 994.882 351.922 990.885C352.105 986.865 352.174 982.17 352.174 976.779V953.146C352.174 947.754 352.082 943.06 351.922 939.04C351.761 935.043 351.555 931.604 351.325 928.699C351.119 926.073 350.843 923.889 350.499 922.146C350.177 920.52 349.879 919.149 349.534 918.033L349.144 916.732V906.367L358.05 905.972L391.032 905.972V916.336L390.642 918.032C390.321 919.102 390.045 920.403 389.747 921.983C389.425 923.818 389.15 926.073 388.92 928.792C388.668 931.627 388.461 935.02 388.324 938.947C388.186 942.991 388.117 947.708 388.117 953.123V976.757C388.117 982.172 388.186 986.889 388.324 990.933C388.438 994.86 388.645 998.23 388.92 1001.09C389.173 1003.81 389.448 1006.06 389.747 1007.9C390.022 1009.48 390.32 1010.8 390.642 1011.87L391.032 1013.17V1023.54L382.127 1023.93L349.144 1023.93V1023.93Z" fill="black"/>
<path fill-rule="evenodd" clip-rule="evenodd" d="M460.003 1023.93C445.772 1023.93 434.388 1020.31 426.171 1013.15C417.541 1005.66 413.158 995.138 413.158 981.892C413.158 974.804 414.695 968.46 417.679 963.022C420.525 957.886 424.358 953.424 429.086 949.799C433.539 946.406 438.611 943.617 444.212 941.502C449.422 939.551 454.907 937.994 460.484 936.901C465.97 935.809 471.386 935.066 476.734 934.647C478.593 934.507 480.407 934.391 482.151 934.275C481.968 932.091 481.578 930.162 481.004 928.535C480.269 926.421 479.282 924.724 478.043 923.447C476.826 922.215 475.38 921.286 473.636 920.658C471.594 919.914 469.252 919.542 466.658 919.542C464.662 919.542 462.688 919.705 460.76 920.053C458.855 920.379 456.858 920.96 454.815 921.726C452.635 922.563 450.34 923.678 447.93 925.095C445.359 926.606 442.582 928.535 439.598 930.882L434.778 934.624L422.614 927.234L425.093 919.194L433.562 901.37L436.5 900.022C439.185 898.79 441.825 897.767 444.418 897.001C446.966 896.234 449.536 895.63 452.13 895.142C454.746 894.654 457.386 894.305 460.117 894.119C462.733 893.933 465.442 893.84 468.311 893.84C476.574 893.84 483.827 894.91 489.908 897.024C496.243 899.231 501.614 902.369 505.814 906.366C510.129 910.456 513.319 915.313 515.316 920.797C517.221 925.979 518.162 931.533 518.162 937.366V971.782C518.162 977.638 518.254 982.727 518.414 987.096C518.575 991.442 518.782 995.183 519.011 998.321C519.217 1001.2 519.493 1003.62 519.837 1005.55C520.159 1007.36 520.48 1008.89 520.825 1010.15L521.169 1011.36V1021.63L512.263 1022.05L480.338 1022.05V1020.28C477.767 1021.26 474.967 1022.09 471.96 1022.75C468.287 1023.54 464.225 1023.95 459.933 1023.95L460.003 1023.93L460.003 1023.93ZM482.266 960.512C479.443 960.674 476.643 960.93 473.934 961.232C469.069 961.789 464.799 962.928 461.196 964.601C458.143 966.042 455.802 967.994 454.012 970.597C452.405 972.944 451.579 976.453 451.579 981.031C451.579 986.91 452.818 991.21 455.274 993.813C457.638 996.346 461.104 997.554 465.809 997.554C468.15 997.554 470.262 997.229 472.052 996.624C474.048 995.928 475.793 995.068 477.262 994.091C478.708 993.115 479.925 992.046 480.842 990.954C481.347 990.373 481.784 989.792 482.151 989.235C482.219 987.283 482.265 985.144 482.265 982.867V960.489L482.266 960.512Z" fill="black"/>
<path d="M402.173 857.147L370.072 824.644L337.97 857.147L370.072 889.65L402.173 857.147Z" fill="black"/>
<path fill-rule="evenodd" clip-rule="evenodd" d="M555.137 1023.93V1013.66L555.482 1012.03C555.826 1010.8 556.147 1009.27 556.469 1007.43C556.813 1005.46 557.088 1003.02 557.364 1000.09C557.616 996.997 557.823 993.301 557.961 989.026C558.098 984.634 558.167 979.522 558.167 973.642V904.949C558.167 899.07 558.098 893.958 557.961 889.566C557.846 885.29 557.639 881.572 557.364 878.458C557.112 875.507 556.836 873.043 556.469 871.068C556.148 869.255 555.826 867.722 555.482 866.467L555.137 865.258V854.034L564.915 854.614L569.207 855.033C570.447 855.172 571.663 855.242 573.04 855.265L577.906 855.311C580.293 855.311 583.552 854.986 587.661 854.405C592.733 853.685 598.93 853.312 606.573 853.312C614.216 853.312 621.4 854.474 627.965 856.752C634.736 859.099 640.726 862.631 645.798 867.232C650.916 871.88 654.91 877.597 657.756 884.243C660.556 890.796 661.98 898.279 661.98 906.436C661.98 917.288 659.753 926.885 655.369 935.018C651.031 943.082 645.087 949.729 637.742 954.725C630.558 959.628 622.272 962.975 613.023 964.717C608.226 965.624 603.268 966.065 598.242 966.065C597.163 966.065 596.061 966.065 594.983 965.996V973.618C594.983 979.474 595.074 984.563 595.235 988.932C595.396 993.278 595.602 997.019 595.831 1000.16C596.038 1003.04 596.313 1005.46 596.658 1007.38C596.979 1009.2 597.3 1010.73 597.645 1011.99L597.989 1013.19V1023.47L589.084 1023.88L555.183 1023.88L555.138 1023.93H555.137ZM596.819 939.946C599.022 939.946 601.134 939.76 603.176 939.412C607.376 938.645 610.819 937.134 613.711 934.741C616.603 932.348 618.852 929.117 620.551 924.818C622.364 920.217 623.305 914.315 623.305 907.273C623.305 902.347 622.8 897.862 621.813 893.934C620.918 890.379 619.609 887.381 617.957 885.034C616.465 882.942 614.629 881.362 612.38 880.223C610.13 879.085 607.262 878.481 603.956 878.481C601.339 878.481 599.068 878.574 597.116 878.806C596.336 878.899 595.601 878.992 594.936 879.061V939.9C595.578 939.923 596.198 939.946 596.841 939.946H596.819Z" fill="black"/>
<path fill-rule="evenodd" clip-rule="evenodd" d="M737.949 1023.93C729.136 1023.93 720.689 1022.42 712.84 1019.45C704.876 1016.45 697.83 1012.06 691.862 1006.41C685.849 1000.74 681.03 993.79 677.586 985.749C674.121 977.709 672.353 968.622 672.353 958.769C672.353 949.613 674.074 940.968 677.471 933.067C680.845 925.213 685.55 918.311 691.472 912.525C697.393 906.738 704.44 902.16 712.449 898.93C720.414 895.7 729.066 894.073 738.156 894.073C747.245 894.073 755.554 895.607 763.449 898.605C771.413 901.649 778.482 906.041 784.45 911.688C790.486 917.382 795.283 924.353 798.703 932.463C802.123 940.527 803.867 949.614 803.867 959.443C803.867 967.763 802.399 975.85 799.552 983.542C796.638 991.326 792.277 998.321 786.607 1004.32C780.915 1010.31 773.915 1015.12 765.813 1018.66C757.665 1022.19 748.301 1023.98 737.972 1023.98L737.949 1023.93L737.949 1023.93ZM735.861 919.775C732.211 919.775 728.998 920.449 726.06 921.843C723.145 923.214 720.643 925.189 718.44 927.838C716.167 930.58 714.354 934.089 713.046 938.249C711.646 942.665 710.958 947.823 710.958 953.633C710.958 960.442 711.692 966.856 713.138 972.642C714.538 978.15 716.535 982.937 719.151 986.865C721.584 990.536 724.499 993.302 728.057 995.324C731.499 997.275 735.516 998.228 740.313 998.228C743.962 998.228 747.153 997.532 750.136 996.137C753.074 994.743 755.53 992.768 757.687 990.072C759.96 987.237 761.796 983.658 763.104 979.429C764.504 974.99 765.193 969.785 765.193 963.975C765.193 957.143 764.481 950.752 763.058 944.989C761.727 939.528 759.73 934.811 757.16 930.953C754.772 927.375 751.903 924.656 748.323 922.681C744.835 920.729 740.749 919.776 735.837 919.776L735.861 919.775H735.861Z" fill="black"/>
<path fill-rule="evenodd" clip-rule="evenodd" d="M822.803 1023.93V1013.1L823.147 1011.38C823.468 1010.17 823.767 1008.69 824.066 1006.92C824.387 1005.01 824.639 1002.67 824.823 999.832C825.053 996.718 825.236 992.999 825.397 988.677C825.557 984.401 825.649 979.335 825.649 973.549V898.953C825.649 893.167 825.557 888.101 825.397 883.779C825.236 879.503 825.053 875.785 824.823 872.671C824.64 869.836 824.387 867.489 824.066 865.583C823.767 863.817 823.469 862.33 823.147 861.121L822.803 859.82V848.991L831.708 848.572L863.267 848.572V859.354L862.946 861.028C862.625 862.213 862.349 863.7 862.073 865.443C861.775 867.418 861.523 869.858 861.27 872.786C861.018 875.854 860.834 879.503 860.719 883.755C860.605 888.054 860.536 893.143 860.536 898.976V973.571C860.536 979.404 860.605 984.47 860.719 988.839C860.834 993.022 861.04 996.694 861.27 999.761C861.522 1002.69 861.775 1005.13 862.073 1007.1C862.349 1008.87 862.624 1010.33 862.946 1011.52L863.267 1012.77V1023.56L854.362 1023.98L822.803 1023.98V1023.93Z" fill="#FF671F"/>
<path fill-rule="evenodd" clip-rule="evenodd" d="M885.415 1023.93V1013.68L885.759 1012.06C886.103 1010.82 886.425 1009.29 886.746 1007.48C887.067 1005.55 887.343 1003.13 887.573 1000.25C887.825 997.113 888.032 993.371 888.169 989.049C888.353 984.68 888.422 979.591 888.422 973.758V898.651C888.422 892.818 888.33 887.729 888.169 883.36C888.009 879.037 887.802 875.296 887.573 872.159C887.366 869.277 887.091 866.883 886.746 864.931C886.425 863.119 886.104 861.585 885.759 860.353L885.415 859.145V848.897L894.32 848.478L927.303 848.479V858.727L926.958 860.354C926.637 861.539 926.339 863.026 926.04 864.793C925.719 866.791 925.444 869.278 925.191 872.252C924.938 875.343 924.732 879.015 924.594 883.29C924.456 887.682 924.388 892.795 924.388 898.651V973.758C924.388 979.614 924.456 984.75 924.594 989.118C924.709 993.394 924.915 997.066 925.191 1000.16C925.443 1003.13 925.718 1005.62 926.04 1007.62C926.338 1009.38 926.637 1010.87 926.958 1012.05L927.303 1013.26V1023.51L918.397 1023.93L885.415 1023.93Z" fill="#046A38"/>
<path fill-rule="evenodd" clip-rule="evenodd" d="M982.869 1023.93C978.898 1023.93 975.135 1023.54 971.646 1022.77C968.272 1022.02 965.173 1021.1 962.373 1019.98C959.481 1018.82 956.887 1017.54 954.593 1016.14C952.458 1014.84 950.553 1013.61 948.923 1012.43L944.953 1009.57L946.697 976.058L962.35 976.059L965.518 983.193C966.045 985.703 966.849 988.003 967.859 990.026C968.777 991.838 969.855 993.325 971.164 994.557C972.426 995.742 973.849 996.648 975.479 997.346C977.062 997.996 978.807 998.322 980.781 998.322C984.958 998.322 986.45 996.904 986.932 996.44C987.781 995.603 988.676 994.418 988.676 991.699C988.676 989.747 988.171 988.051 987.07 986.377C985.44 983.891 983.305 981.404 980.735 979.034C977.751 976.292 974.561 973.526 971.118 970.761C967.239 967.624 963.59 964.301 960.216 960.745C956.543 956.887 953.422 952.564 950.989 947.94C948.258 942.734 946.881 936.832 946.881 930.348C946.881 925.026 947.891 920.007 949.888 915.453C951.884 910.898 954.73 906.901 958.334 903.624C961.868 900.441 966.069 897.931 970.797 896.211C975.433 894.538 980.506 893.678 985.899 893.678C992.647 893.678 998.224 894.422 1003.02 895.932C1007.59 897.396 1011.05 898.837 1013.44 900.162L1017.73 902.556L1019.55 933.3L1003.89 935.578L1000.22 928.397C999.945 927.49 999.463 926.398 998.752 925.213C998.155 924.167 997.306 923.169 996.295 922.239C995.331 921.379 994.115 920.612 992.646 919.985C991.338 919.45 989.732 919.148 987.804 919.148C986.587 919.148 985.485 919.31 984.476 919.659C983.672 919.914 983.007 920.286 982.479 920.751C982.043 921.146 981.698 921.611 981.4 922.262C981.125 922.889 980.964 923.795 980.964 924.934C980.964 926.561 981.492 928.071 982.571 929.721C984.315 932.324 986.611 934.95 989.319 937.552C992.372 940.48 995.677 943.408 999.211 946.383C1003.21 949.706 1006.92 953.192 1010.37 956.817C1014.06 960.721 1017.18 964.997 1019.68 969.482C1022.53 974.664 1024 980.311 1024 986.284C1024 990.931 1023.17 995.509 1021.57 999.925C1019.89 1004.53 1017.25 1008.69 1013.76 1012.24C1010.32 1015.8 1005.94 1018.65 1000.75 1020.77C995.631 1022.84 989.64 1023.91 982.893 1023.91L982.869 1023.93V1023.93Z" fill="black"/>
</g>
<path fill-rule="evenodd" clip-rule="evenodd" d="M194.961 800.48V751.047L197.093 743.197C199.083 737.681 200.931 730.892 202.782 722.83C204.772 714.132 206.335 703.417 207.476 690.475C208.897 676.26 210.034 659.286 211.029 639.555C212.024 620.036 212.593 596.911 212.593 570.497V229.983C212.593 203.569 212.024 180.444 211.029 160.713C210.034 141.194 208.897 124.222 207.476 110.007C206.339 97.0655 204.775 86.3529 202.782 77.6523C200.934 69.5906 199.087 62.8016 197.093 57.2849L194.961 51.3441V1.91135L250.131 0.00264327L445.642 0V49.2205L443.652 56.858C441.662 62.2685 439.957 69.0577 438.248 77.0134C436.4 86.0293 434.836 97.1689 433.269 110.535C431.706 124.538 430.569 141.194 429.858 160.604C429.147 180.229 428.721 203.46 428.721 230.086V570.601C428.721 597.227 429.148 620.351 429.858 640.295C430.569 659.39 431.848 676.149 433.269 690.151C434.833 703.518 436.396 714.657 438.248 723.673C439.953 731.735 441.659 738.418 443.652 743.828L445.642 749.557V798.778L390.472 800.686L194.961 800.692V800.48Z" fill="#FF671F"/>
<path fill-rule="evenodd" clip-rule="evenodd" d="M584.395 800.692V753.923L586.531 746.499C588.667 740.878 590.66 733.879 592.657 725.607C594.65 716.806 596.358 705.775 597.786 692.625C599.352 678.308 600.633 661.232 601.487 641.506C602.626 621.568 603.053 598.344 603.053 571.725V228.967C603.053 202.347 602.484 179.123 601.487 159.185C600.491 139.459 599.209 122.386 597.786 108.067C596.504 94.9165 594.796 83.9922 592.657 75.0846C590.664 66.8131 588.67 59.8138 586.531 54.1925L584.395 48.6773V1.90819L639.657 0L844.327 0.00264256V46.7717L842.191 54.1952C840.198 59.6042 838.347 66.3917 836.492 74.4512C834.499 83.5707 832.791 94.9191 831.221 108.494C829.655 122.598 828.374 139.356 827.52 158.867C826.665 178.911 826.238 202.241 826.238 228.967V571.725C826.238 598.45 826.665 621.887 827.52 641.824C828.232 661.338 829.513 678.093 831.221 692.198C832.787 705.773 834.496 717.121 836.492 726.241C838.343 734.3 840.194 741.087 842.191 746.497L844.327 752.012V798.781L789.065 800.689L584.395 800.692Z" fill="#046A38"/>
<defs>
<clipPath id="clip0_4_41">
<rect width="1024" height="199.356" fill="white" transform="translate(0 824.644)"/>
</clipPath>
</defs>
</svg>
