<svg width="171" height="189" viewBox="0 0 171 189" fill="none" xmlns="http://www.w3.org/2000/svg">
<path d="M166.064 175.192H87.4722V185.112H166.064V175.192Z" fill="#FFAE01"/>
<path d="M92.3363 182.936C92.2083 182.936 92.1443 182.872 92.1443 182.744V177.624C92.1443 177.496 92.2083 177.432 92.3363 177.432C92.4643 177.432 92.5283 177.496 92.5283 177.624V182.744C92.5283 182.808 92.4643 182.936 92.3363 182.936Z" fill="white"/>
<path d="M97.5843 182.936C97.4563 182.936 97.3923 182.872 97.3923 182.744V177.624C97.3923 177.496 97.4563 177.432 97.5843 177.432C97.7123 177.432 97.7763 177.496 97.7763 177.624V182.744C97.8403 182.808 97.7123 182.936 97.5843 182.936Z" fill="white"/>
<path d="M102.896 182.936C102.768 182.936 102.704 182.872 102.704 182.744V177.624C102.704 177.496 102.768 177.432 102.896 177.432C103.024 177.432 103.088 177.496 103.088 177.624V182.744C103.088 182.808 103.024 182.936 102.896 182.936Z" fill="white"/>
<path d="M108.208 182.936C108.08 182.936 108.016 182.872 108.016 182.744V177.624C108.016 177.496 108.08 177.432 108.208 177.432C108.336 177.432 108.4 177.496 108.4 177.624V182.744C108.4 182.808 108.272 182.936 108.208 182.936Z" fill="white"/>
<path d="M113.456 182.936C113.328 182.936 113.264 182.872 113.264 182.744V177.624C113.264 177.496 113.328 177.432 113.456 177.432C113.584 177.432 113.648 177.496 113.648 177.624V182.744C113.648 182.808 113.584 182.936 113.456 182.936Z" fill="white"/>
<path d="M118.768 182.936C118.64 182.936 118.576 182.872 118.576 182.744V177.624C118.576 177.496 118.64 177.432 118.768 177.432C118.896 177.432 118.96 177.496 118.96 177.624V182.744C118.96 182.808 118.832 182.936 118.768 182.936Z" fill="white"/>
<path d="M124.016 182.936C123.888 182.936 123.824 182.872 123.824 182.744V177.624C123.824 177.496 123.888 177.432 124.016 177.432C124.144 177.432 124.208 177.496 124.208 177.624V182.744C124.208 182.808 124.144 182.936 124.016 182.936Z" fill="white"/>
<path d="M129.328 182.936C129.2 182.936 129.136 182.872 129.136 182.744V177.624C129.136 177.496 129.2 177.432 129.328 177.432C129.456 177.432 129.52 177.496 129.52 177.624V182.744C129.52 182.808 129.392 182.936 129.328 182.936Z" fill="white"/>
<path d="M134.576 182.936C134.448 182.936 134.384 182.872 134.384 182.744V177.624C134.384 177.496 134.448 177.432 134.576 177.432C134.704 177.432 134.768 177.496 134.768 177.624V182.744C134.768 182.808 134.704 182.936 134.576 182.936Z" fill="white"/>
<path d="M139.888 182.936C139.76 182.936 139.696 182.872 139.696 182.744V177.624C139.696 177.496 139.76 177.432 139.888 177.432C140.016 177.432 140.08 177.496 140.08 177.624V182.744C140.08 182.808 140.016 182.936 139.888 182.936Z" fill="white"/>
<path d="M145.136 182.936C145.008 182.936 144.944 182.872 144.944 182.744V177.624C144.944 177.496 145.008 177.432 145.136 177.432C145.264 177.432 145.328 177.496 145.328 177.624V182.744C145.392 182.808 145.264 182.936 145.136 182.936Z" fill="white"/>
<path d="M150.448 182.936C150.32 182.936 150.256 182.872 150.256 182.744V177.624C150.256 177.496 150.32 177.432 150.448 177.432C150.576 177.432 150.64 177.496 150.64 177.624V182.744C150.64 182.808 150.576 182.936 150.448 182.936Z" fill="white"/>
<path d="M155.696 182.936C155.568 182.936 155.504 182.872 155.504 182.744V177.624C155.504 177.496 155.568 177.432 155.696 177.432C155.824 177.432 155.888 177.496 155.888 177.624V182.744C155.952 182.808 155.824 182.936 155.696 182.936Z" fill="white"/>
<path d="M161.008 182.936C160.88 182.936 160.816 182.872 160.816 182.744V177.624C160.816 177.496 160.88 177.432 161.008 177.432C161.136 177.432 161.2 177.496 161.2 177.624V182.744C161.2 182.808 161.136 182.936 161.008 182.936Z" fill="white"/>
<path d="M159.6 155.416H81.0081V165.336H159.6V155.416Z" fill="#FFAE01"/>
<path d="M85.9361 163.096C85.8081 163.096 85.7441 163.032 85.7441 162.904V157.784C85.7441 157.656 85.8081 157.592 85.9361 157.592C86.0641 157.592 86.1281 157.656 86.1281 157.784V162.904C86.1281 163.032 86.0641 163.096 85.9361 163.096Z" fill="white"/>
<path d="M91.1842 163.096C91.0562 163.096 90.9922 163.032 90.9922 162.904V157.784C90.9922 157.656 91.0562 157.592 91.1842 157.592C91.3122 157.592 91.3762 157.656 91.3762 157.784V162.904C91.3762 163.032 91.3122 163.096 91.1842 163.096Z" fill="white"/>
<path d="M96.4962 163.096C96.3682 163.096 96.3042 163.032 96.3042 162.904V157.784C96.3042 157.656 96.3682 157.592 96.4962 157.592C96.6242 157.592 96.6882 157.656 96.6882 157.784V162.904C96.6882 163.032 96.6242 163.096 96.4962 163.096Z" fill="white"/>
<path d="M101.744 163.096C101.616 163.096 101.552 163.032 101.552 162.904V157.784C101.552 157.656 101.616 157.592 101.744 157.592C101.872 157.592 101.936 157.656 101.936 157.784V162.904C102 163.032 101.872 163.096 101.744 163.096Z" fill="white"/>
<path d="M107.056 163.096C106.928 163.096 106.864 163.032 106.864 162.904V157.784C106.864 157.656 106.928 157.592 107.056 157.592C107.184 157.592 107.248 157.656 107.248 157.784V162.904C107.248 163.032 107.184 163.096 107.056 163.096Z" fill="white"/>
<path d="M112.304 163.096C112.176 163.096 112.112 163.032 112.112 162.904V157.784C112.112 157.656 112.176 157.592 112.304 157.592C112.432 157.592 112.496 157.656 112.496 157.784V162.904C112.56 163.032 112.432 163.096 112.304 163.096Z" fill="white"/>
<path d="M117.616 163.096C117.488 163.096 117.424 163.032 117.424 162.904V157.784C117.424 157.656 117.488 157.592 117.616 157.592C117.744 157.592 117.808 157.656 117.808 157.784V162.904C117.808 163.032 117.744 163.096 117.616 163.096Z" fill="white"/>
<path d="M122.928 163.096C122.8 163.096 122.736 163.032 122.736 162.904V157.784C122.736 157.656 122.8 157.592 122.928 157.592C123.056 157.592 123.12 157.656 123.12 157.784V162.904C123.12 163.032 122.992 163.096 122.928 163.096Z" fill="white"/>
<path d="M128.176 163.096C128.048 163.096 127.984 163.032 127.984 162.904V157.784C127.984 157.656 128.048 157.592 128.176 157.592C128.304 157.592 128.368 157.656 128.368 157.784V162.904C128.368 163.032 128.304 163.096 128.176 163.096Z" fill="white"/>
<path d="M133.488 163.096C133.36 163.096 133.296 163.032 133.296 162.904V157.784C133.296 157.656 133.36 157.592 133.488 157.592C133.616 157.592 133.68 157.656 133.68 157.784V162.904C133.68 163.032 133.552 163.096 133.488 163.096Z" fill="white"/>
<path d="M138.736 163.096C138.608 163.096 138.544 163.032 138.544 162.904V157.784C138.544 157.656 138.608 157.592 138.736 157.592C138.864 157.592 138.928 157.656 138.928 157.784V162.904C138.928 163.032 138.864 163.096 138.736 163.096Z" fill="white"/>
<path d="M144.048 163.096C143.92 163.096 143.856 163.032 143.856 162.904V157.784C143.856 157.656 143.92 157.592 144.048 157.592C144.176 157.592 144.24 157.656 144.24 157.784V162.904C144.24 163.032 144.176 163.096 144.048 163.096Z" fill="white"/>
<path d="M149.296 163.096C149.168 163.096 149.104 163.032 149.104 162.904V157.784C149.104 157.656 149.168 157.592 149.296 157.592C149.424 157.592 149.488 157.656 149.488 157.784V162.904C149.488 163.032 149.424 163.096 149.296 163.096Z" fill="white"/>
<path d="M154.608 163.096C154.48 163.096 154.416 163.032 154.416 162.904V157.784C154.416 157.656 154.48 157.592 154.608 157.592C154.736 157.592 154.8 157.656 154.8 157.784V162.904C154.8 163.032 154.736 163.096 154.608 163.096Z" fill="white"/>
<path d="M155.696 125.656H77.104V135.576H155.696V125.656Z" fill="#FFAE01"/>
<path d="M81.9679 133.4C81.8399 133.4 81.7759 133.336 81.7759 133.208V128.088C81.7759 127.96 81.8399 127.896 81.9679 127.896C82.0959 127.896 82.1599 127.96 82.1599 128.088V133.208C82.2239 133.272 82.0959 133.4 81.9679 133.4Z" fill="white"/>
<path d="M87.2799 133.4C87.1519 133.4 87.0879 133.336 87.0879 133.208V128.088C87.0879 127.96 87.1519 127.896 87.2799 127.896C87.4079 127.896 87.4719 127.96 87.4719 128.088V133.208C87.4719 133.272 87.4079 133.4 87.2799 133.4Z" fill="white"/>
<path d="M92.5279 133.4C92.3999 133.4 92.3359 133.336 92.3359 133.208V128.088C92.3359 127.96 92.3999 127.896 92.5279 127.896C92.6559 127.896 92.7199 127.96 92.7199 128.088V133.208C92.7839 133.272 92.6559 133.4 92.5279 133.4Z" fill="white"/>
<path d="M97.84 133.4C97.712 133.4 97.6479 133.336 97.6479 133.208V128.088C97.6479 127.96 97.712 127.896 97.84 127.896C97.968 127.896 98.032 127.96 98.032 128.088V133.208C98.032 133.272 97.968 133.4 97.84 133.4Z" fill="white"/>
<path d="M103.152 133.4C103.024 133.4 102.96 133.336 102.96 133.208V128.088C102.96 127.96 103.024 127.896 103.152 127.896C103.28 127.896 103.344 127.96 103.344 128.088V133.208C103.344 133.272 103.216 133.4 103.152 133.4Z" fill="white"/>
<path d="M108.4 133.4C108.272 133.4 108.208 133.336 108.208 133.208V128.088C108.208 127.96 108.272 127.896 108.4 127.896C108.528 127.896 108.592 127.96 108.592 128.088V133.208C108.592 133.272 108.528 133.4 108.4 133.4Z" fill="white"/>
<path d="M113.712 133.4C113.584 133.4 113.52 133.336 113.52 133.208V128.088C113.52 127.96 113.584 127.896 113.712 127.896C113.84 127.896 113.904 127.96 113.904 128.088V133.208C113.904 133.272 113.776 133.4 113.712 133.4Z" fill="white"/>
<path d="M118.96 133.4C118.832 133.4 118.768 133.336 118.768 133.208V128.088C118.768 127.96 118.832 127.896 118.96 127.896C119.088 127.896 119.152 127.96 119.152 128.088V133.208C119.152 133.272 119.088 133.4 118.96 133.4Z" fill="white"/>
<path d="M124.272 133.4C124.144 133.4 124.08 133.336 124.08 133.208V128.088C124.08 127.96 124.144 127.896 124.272 127.896C124.4 127.896 124.464 127.96 124.464 128.088V133.208C124.464 133.272 124.4 133.4 124.272 133.4Z" fill="white"/>
<path d="M129.52 133.4C129.392 133.4 129.328 133.336 129.328 133.208V128.088C129.328 127.96 129.392 127.896 129.52 127.896C129.648 127.896 129.712 127.96 129.712 128.088V133.208C129.712 133.272 129.648 133.4 129.52 133.4Z" fill="white"/>
<path d="M134.832 133.4C134.704 133.4 134.64 133.336 134.64 133.208V128.088C134.64 127.96 134.704 127.896 134.832 127.896C134.96 127.896 135.024 127.96 135.024 128.088V133.208C135.024 133.272 134.96 133.4 134.832 133.4Z" fill="white"/>
<path d="M140.08 133.4C139.952 133.4 139.888 133.336 139.888 133.208V128.088C139.888 127.96 139.952 127.896 140.08 127.896C140.208 127.896 140.272 127.96 140.272 128.088V133.208C140.336 133.272 140.208 133.4 140.08 133.4Z" fill="white"/>
<path d="M145.392 133.4C145.264 133.4 145.2 133.336 145.2 133.208V128.088C145.2 127.96 145.264 127.896 145.392 127.896C145.52 127.896 145.584 127.96 145.584 128.088V133.208C145.584 133.272 145.52 133.4 145.392 133.4Z" fill="white"/>
<path d="M150.64 133.4C150.512 133.4 150.448 133.336 150.448 133.208V128.088C150.448 127.96 150.512 127.896 150.64 127.896C150.768 127.896 150.832 127.96 150.832 128.088V133.208C150.896 133.272 150.768 133.4 150.64 133.4Z" fill="white"/>
<path d="M151.6 115.736H73.0081V125.656H151.6V115.736Z" fill="#FFAE01"/>
<path d="M77.8719 123.48C77.7439 123.48 77.6799 123.416 77.6799 123.288V118.168C77.6799 118.04 77.7439 117.976 77.8719 117.976C77.9999 117.976 78.0639 118.04 78.0639 118.168V123.288C78.0639 123.352 77.9999 123.48 77.8719 123.48Z" fill="white"/>
<path d="M83.12 123.48C82.992 123.48 82.928 123.416 82.928 123.288V118.168C82.928 118.04 82.992 117.976 83.12 117.976C83.248 117.976 83.312 118.04 83.312 118.168V123.288C83.376 123.352 83.248 123.48 83.12 123.48Z" fill="white"/>
<path d="M88.432 123.48C88.304 123.48 88.24 123.416 88.24 123.288V118.168C88.24 118.04 88.304 117.976 88.432 117.976C88.56 117.976 88.624 118.04 88.624 118.168V123.288C88.624 123.352 88.56 123.48 88.432 123.48Z" fill="white"/>
<path d="M93.68 123.48C93.552 123.48 93.488 123.416 93.488 123.288V118.168C93.488 118.04 93.552 117.976 93.68 117.976C93.808 117.976 93.872 118.04 93.872 118.168V123.288C93.936 123.352 93.808 123.48 93.68 123.48Z" fill="white"/>
<path d="M98.9921 123.48C98.8641 123.48 98.8 123.416 98.8 123.288V118.168C98.8 118.04 98.8641 117.976 98.9921 117.976C99.1201 117.976 99.1841 118.04 99.1841 118.168V123.288C99.1841 123.352 99.1201 123.48 98.9921 123.48Z" fill="white"/>
<path d="M104.304 123.48C104.176 123.48 104.112 123.416 104.112 123.288V118.168C104.112 118.04 104.176 117.976 104.304 117.976C104.432 117.976 104.496 118.04 104.496 118.168V123.288C104.496 123.352 104.368 123.48 104.304 123.48Z" fill="white"/>
<path d="M109.552 123.48C109.424 123.48 109.36 123.416 109.36 123.288V118.168C109.36 118.04 109.424 117.976 109.552 117.976C109.68 117.976 109.744 118.04 109.744 118.168V123.288C109.744 123.352 109.68 123.48 109.552 123.48Z" fill="white"/>
<path d="M114.864 123.48C114.736 123.48 114.672 123.416 114.672 123.288V118.168C114.672 118.04 114.736 117.976 114.864 117.976C114.992 117.976 115.056 118.04 115.056 118.168V123.288C115.056 123.352 114.928 123.48 114.864 123.48Z" fill="white"/>
<path d="M120.112 123.48C119.984 123.48 119.92 123.416 119.92 123.288V118.168C119.92 118.04 119.984 117.976 120.112 117.976C120.24 117.976 120.304 118.04 120.304 118.168V123.288C120.304 123.352 120.24 123.48 120.112 123.48Z" fill="white"/>
<path d="M125.424 123.48C125.296 123.48 125.232 123.416 125.232 123.288V118.168C125.232 118.04 125.296 117.976 125.424 117.976C125.552 117.976 125.616 118.04 125.616 118.168V123.288C125.616 123.352 125.488 123.48 125.424 123.48Z" fill="white"/>
<path d="M130.672 123.48C130.544 123.48 130.48 123.416 130.48 123.288V118.168C130.48 118.04 130.544 117.976 130.672 117.976C130.8 117.976 130.864 118.04 130.864 118.168V123.288C130.864 123.352 130.8 123.48 130.672 123.48Z" fill="white"/>
<path d="M135.984 123.48C135.856 123.48 135.792 123.416 135.792 123.288V118.168C135.792 118.04 135.856 117.976 135.984 117.976C136.112 117.976 136.176 118.04 136.176 118.168V123.288C136.176 123.352 136.112 123.48 135.984 123.48Z" fill="white"/>
<path d="M141.232 123.48C141.104 123.48 141.04 123.416 141.04 123.288V118.168C141.04 118.04 141.104 117.976 141.232 117.976C141.36 117.976 141.424 118.04 141.424 118.168V123.288C141.488 123.352 141.36 123.48 141.232 123.48Z" fill="white"/>
<path d="M146.544 123.48C146.416 123.48 146.352 123.416 146.352 123.288V118.168C146.352 118.04 146.416 117.976 146.544 117.976C146.672 117.976 146.736 118.04 146.736 118.168V123.288C146.736 123.352 146.672 123.48 146.544 123.48Z" fill="white"/>
<path d="M167.152 135.576H88.5601V145.496H167.152V135.576Z" fill="#FFAE01"/>
<path d="M93.4881 143.256C93.3601 143.256 93.2961 143.192 93.2961 143.064V137.944C93.2961 137.816 93.3601 137.752 93.4881 137.752C93.6161 137.752 93.6801 137.816 93.6801 137.944V143.064C93.6801 143.192 93.5521 143.256 93.4881 143.256Z" fill="white"/>
<path d="M98.7362 143.256C98.6082 143.256 98.5442 143.192 98.5442 143.064V137.944C98.5442 137.816 98.6082 137.752 98.7362 137.752C98.8642 137.752 98.9282 137.816 98.9282 137.944V143.064C98.9282 143.192 98.8642 143.256 98.7362 143.256Z" fill="white"/>
<path d="M104.048 143.256C103.92 143.256 103.856 143.192 103.856 143.064V137.944C103.856 137.816 103.92 137.752 104.048 137.752C104.176 137.752 104.24 137.816 104.24 137.944V143.064C104.24 143.192 104.112 143.256 104.048 143.256Z" fill="white"/>
<path d="M109.296 143.256C109.168 143.256 109.104 143.192 109.104 143.064V137.944C109.104 137.816 109.168 137.752 109.296 137.752C109.424 137.752 109.488 137.816 109.488 137.944V143.064C109.488 143.192 109.424 143.256 109.296 143.256Z" fill="white"/>
<path d="M114.608 143.256C114.48 143.256 114.416 143.192 114.416 143.064V137.944C114.416 137.816 114.48 137.752 114.608 137.752C114.736 137.752 114.8 137.816 114.8 137.944V143.064C114.8 143.192 114.736 143.256 114.608 143.256Z" fill="white"/>
<path d="M119.856 143.256C119.728 143.256 119.664 143.192 119.664 143.064V137.944C119.664 137.816 119.728 137.752 119.856 137.752C119.984 137.752 120.048 137.816 120.048 137.944V143.064C120.112 143.192 119.984 143.256 119.856 143.256Z" fill="white"/>
<path d="M125.168 143.256C125.04 143.256 124.976 143.192 124.976 143.064V137.944C124.976 137.816 125.04 137.752 125.168 137.752C125.296 137.752 125.36 137.816 125.36 137.944V143.064C125.36 143.192 125.296 143.256 125.168 143.256Z" fill="white"/>
<path d="M130.416 143.256C130.288 143.256 130.224 143.192 130.224 143.064V137.944C130.224 137.816 130.288 137.752 130.416 137.752C130.544 137.752 130.608 137.816 130.608 137.944V143.064C130.672 143.192 130.544 143.256 130.416 143.256Z" fill="white"/>
<path d="M135.728 143.256C135.6 143.256 135.536 143.192 135.536 143.064V137.944C135.536 137.816 135.6 137.752 135.728 137.752C135.856 137.752 135.92 137.816 135.92 137.944V143.064C135.92 143.192 135.856 143.256 135.728 143.256Z" fill="white"/>
<path d="M141.04 143.256C140.912 143.256 140.848 143.192 140.848 143.064V137.944C140.848 137.816 140.912 137.752 141.04 137.752C141.168 137.752 141.232 137.816 141.232 137.944V143.064C141.232 143.192 141.104 143.256 141.04 143.256Z" fill="white"/>
<path d="M146.288 143.256C146.16 143.256 146.096 143.192 146.096 143.064V137.944C146.096 137.816 146.16 137.752 146.288 137.752C146.416 137.752 146.48 137.816 146.48 137.944V143.064C146.48 143.192 146.416 143.256 146.288 143.256Z" fill="white"/>
<path d="M151.6 143.256C151.472 143.256 151.408 143.192 151.408 143.064V137.944C151.408 137.816 151.472 137.752 151.6 137.752C151.728 137.752 151.792 137.816 151.792 137.944V143.064C151.792 143.192 151.664 143.256 151.6 143.256Z" fill="white"/>
<path d="M156.848 143.256C156.72 143.256 156.656 143.192 156.656 143.064V137.944C156.656 137.816 156.72 137.752 156.848 137.752C156.976 137.752 157.04 137.816 157.04 137.944V143.064C157.04 143.192 156.976 143.256 156.848 143.256Z" fill="white"/>
<path d="M162.16 143.256C162.032 143.256 161.968 143.192 161.968 143.064V137.944C161.968 137.816 162.032 137.752 162.16 137.752C162.288 137.752 162.352 137.816 162.352 137.944V143.064C162.352 143.192 162.288 143.256 162.16 143.256Z" fill="white"/>
<path d="M162.224 145.496H83.6321V155.416H162.224V145.496Z" fill="#FFAE01"/>
<path d="M88.4962 153.176C88.3682 153.176 88.3042 153.112 88.3042 152.984V147.864C88.3042 147.736 88.3682 147.672 88.4962 147.672C88.6242 147.672 88.6882 147.736 88.6882 147.864V152.984C88.6882 153.112 88.6242 153.176 88.4962 153.176Z" fill="white"/>
<path d="M93.8082 153.176C93.6802 153.176 93.6162 153.112 93.6162 152.984V147.864C93.6162 147.736 93.6802 147.672 93.8082 147.672C93.9362 147.672 94.0002 147.736 94.0002 147.864V152.984C94.0002 153.112 93.8722 153.176 93.8082 153.176Z" fill="white"/>
<path d="M99.0562 153.176C98.9282 153.176 98.8643 153.112 98.8643 152.984V147.864C98.8643 147.736 98.9282 147.672 99.0562 147.672C99.1842 147.672 99.2483 147.736 99.2483 147.864V152.984C99.2483 153.112 99.1842 153.176 99.0562 153.176Z" fill="white"/>
<path d="M104.368 153.176C104.24 153.176 104.176 153.112 104.176 152.984V147.864C104.176 147.736 104.24 147.672 104.368 147.672C104.496 147.672 104.56 147.736 104.56 147.864V152.984C104.56 153.112 104.496 153.176 104.368 153.176Z" fill="white"/>
<path d="M109.616 153.176C109.488 153.176 109.424 153.112 109.424 152.984V147.864C109.424 147.736 109.488 147.672 109.616 147.672C109.744 147.672 109.808 147.736 109.808 147.864V152.984C109.808 153.112 109.744 153.176 109.616 153.176Z" fill="white"/>
<path d="M114.928 153.176C114.8 153.176 114.736 153.112 114.736 152.984V147.864C114.736 147.736 114.8 147.672 114.928 147.672C115.056 147.672 115.12 147.736 115.12 147.864V152.984C115.12 153.112 115.056 153.176 114.928 153.176Z" fill="white"/>
<path d="M120.176 153.176C120.048 153.176 119.984 153.112 119.984 152.984V147.864C119.984 147.736 120.048 147.672 120.176 147.672C120.304 147.672 120.368 147.736 120.368 147.864V152.984C120.432 153.112 120.304 153.176 120.176 153.176Z" fill="white"/>
<path d="M125.488 153.176C125.36 153.176 125.296 153.112 125.296 152.984V147.864C125.296 147.736 125.36 147.672 125.488 147.672C125.616 147.672 125.68 147.736 125.68 147.864V152.984C125.68 153.112 125.616 153.176 125.488 153.176Z" fill="white"/>
<path d="M130.8 153.176C130.672 153.176 130.608 153.112 130.608 152.984V147.864C130.608 147.736 130.672 147.672 130.8 147.672C130.928 147.672 130.992 147.736 130.992 147.864V152.984C130.992 153.112 130.864 153.176 130.8 153.176Z" fill="white"/>
<path d="M136.048 153.176C135.92 153.176 135.856 153.112 135.856 152.984V147.864C135.856 147.736 135.92 147.672 136.048 147.672C136.176 147.672 136.24 147.736 136.24 147.864V152.984C136.24 153.112 136.176 153.176 136.048 153.176Z" fill="white"/>
<path d="M141.36 153.176C141.232 153.176 141.168 153.112 141.168 152.984V147.864C141.168 147.736 141.232 147.672 141.36 147.672C141.488 147.672 141.552 147.736 141.552 147.864V152.984C141.552 153.112 141.424 153.176 141.36 153.176Z" fill="white"/>
<path d="M146.608 153.176C146.48 153.176 146.416 153.112 146.416 152.984V147.864C146.416 147.736 146.48 147.672 146.608 147.672C146.736 147.672 146.8 147.736 146.8 147.864V152.984C146.8 153.112 146.736 153.176 146.608 153.176Z" fill="white"/>
<path d="M151.92 153.176C151.792 153.176 151.728 153.112 151.728 152.984V147.864C151.728 147.736 151.792 147.672 151.92 147.672C152.048 147.672 152.112 147.736 152.112 147.864V152.984C152.112 153.112 151.984 153.176 151.92 153.176Z" fill="white"/>
<path d="M157.168 153.176C157.04 153.176 156.976 153.112 156.976 152.984V147.864C156.976 147.736 157.04 147.672 157.168 147.672C157.296 147.672 157.36 147.736 157.36 147.864V152.984C157.36 153.112 157.296 153.176 157.168 153.176Z" fill="white"/>
<path d="M170.928 165.272H92.3359V175.192H170.928V165.272Z" fill="#FFAE01"/>
<path d="M97.2001 173.016C97.0721 173.016 97.0081 172.952 97.0081 172.824V167.704C97.0081 167.576 97.0721 167.512 97.2001 167.512C97.3281 167.512 97.3921 167.576 97.3921 167.704V172.824C97.3921 172.888 97.3281 173.016 97.2001 173.016Z" fill="white"/>
<path d="M102.512 173.016C102.384 173.016 102.32 172.952 102.32 172.824V167.704C102.32 167.576 102.384 167.512 102.512 167.512C102.64 167.512 102.704 167.576 102.704 167.704V172.824C102.704 172.888 102.576 173.016 102.512 173.016Z" fill="white"/>
<path d="M107.76 173.016C107.632 173.016 107.568 172.952 107.568 172.824V167.704C107.568 167.576 107.632 167.512 107.76 167.512C107.888 167.512 107.952 167.576 107.952 167.704V172.824C107.952 172.888 107.888 173.016 107.76 173.016Z" fill="white"/>
<path d="M113.072 173.016C112.944 173.016 112.88 172.952 112.88 172.824V167.704C112.88 167.576 112.944 167.512 113.072 167.512C113.2 167.512 113.264 167.576 113.264 167.704V172.824C113.264 172.888 113.2 173.016 113.072 173.016Z" fill="white"/>
<path d="M118.32 173.016C118.192 173.016 118.128 172.952 118.128 172.824V167.704C118.128 167.576 118.192 167.512 118.32 167.512C118.448 167.512 118.512 167.576 118.512 167.704V172.824C118.576 172.888 118.448 173.016 118.32 173.016Z" fill="white"/>
<path d="M123.632 173.016C123.504 173.016 123.44 172.952 123.44 172.824V167.704C123.44 167.576 123.504 167.512 123.632 167.512C123.76 167.512 123.824 167.576 123.824 167.704V172.824C123.824 172.888 123.76 173.016 123.632 173.016Z" fill="white"/>
<path d="M128.88 173.016C128.752 173.016 128.688 172.952 128.688 172.824V167.704C128.688 167.576 128.752 167.512 128.88 167.512C129.008 167.512 129.072 167.576 129.072 167.704V172.824C129.136 172.888 129.008 173.016 128.88 173.016Z" fill="white"/>
<path d="M134.192 173.016C134.064 173.016 134 172.952 134 172.824V167.704C134 167.576 134.064 167.512 134.192 167.512C134.32 167.512 134.384 167.576 134.384 167.704V172.824C134.384 172.888 134.32 173.016 134.192 173.016Z" fill="white"/>
<path d="M139.504 173.016C139.376 173.016 139.312 172.952 139.312 172.824V167.704C139.312 167.576 139.376 167.512 139.504 167.512C139.632 167.512 139.696 167.576 139.696 167.704V172.824C139.696 172.888 139.568 173.016 139.504 173.016Z" fill="white"/>
<path d="M144.752 173.016C144.624 173.016 144.56 172.952 144.56 172.824V167.704C144.56 167.576 144.624 167.512 144.752 167.512C144.88 167.512 144.944 167.576 144.944 167.704V172.824C144.944 172.888 144.88 173.016 144.752 173.016Z" fill="white"/>
<path d="M150.064 173.016C149.936 173.016 149.872 172.952 149.872 172.824V167.704C149.872 167.576 149.936 167.512 150.064 167.512C150.192 167.512 150.256 167.576 150.256 167.704V172.824C150.256 172.888 150.128 173.016 150.064 173.016Z" fill="white"/>
<path d="M155.312 173.016C155.184 173.016 155.12 172.952 155.12 172.824V167.704C155.12 167.576 155.184 167.512 155.312 167.512C155.44 167.512 155.504 167.576 155.504 167.704V172.824C155.504 172.888 155.44 173.016 155.312 173.016Z" fill="white"/>
<path d="M160.624 173.016C160.496 173.016 160.432 172.952 160.432 172.824V167.704C160.432 167.576 160.496 167.512 160.624 167.512C160.752 167.512 160.816 167.576 160.816 167.704V172.824C160.816 172.888 160.752 173.016 160.624 173.016Z" fill="white"/>
<path d="M165.872 173.016C165.744 173.016 165.68 172.952 165.68 172.824V167.704C165.68 167.576 165.744 167.512 165.872 167.512C166 167.512 166.064 167.576 166.064 167.704V172.824C166.064 172.888 166 173.016 165.872 173.016Z" fill="white"/>
<path d="M146.544 125.848H80.432C80.304 125.848 80.24 125.784 80.24 125.656C80.24 125.528 80.304 125.464 80.432 125.464H146.544C146.672 125.464 146.736 125.528 146.736 125.656C146.736 125.784 146.672 125.848 146.544 125.848Z" fill="#FF6D00"/>
<path d="M160.304 145.688H92.336C92.208 145.688 92.144 145.624 92.144 145.496C92.144 145.368 92.208 145.304 92.336 145.304H160.304C160.432 145.304 160.496 145.368 160.496 145.496C160.496 145.56 160.368 145.688 160.304 145.688Z" fill="#FF6D00"/>
<path d="M155.952 155.608H87.984C87.856 155.608 87.792 155.544 87.792 155.416C87.792 155.288 87.856 155.224 87.984 155.224H155.952C156.08 155.224 156.144 155.288 156.144 155.416C156.144 155.544 156.08 155.608 155.952 155.608Z" fill="#FF6D00"/>
<path d="M158.256 165.528H94.576C94.448 165.528 94.384 165.464 94.384 165.336C94.384 165.208 94.448 165.144 94.576 165.144H158.256C158.384 165.144 158.448 165.208 158.448 165.336C158.448 165.4 158.384 165.528 158.256 165.528Z" fill="#FF6D00"/>
<path d="M163.504 175.384H94.704C94.576 175.384 94.512 175.32 94.512 175.192C94.512 175.064 94.576 175 94.704 175H163.568C163.696 175 163.76 175.064 163.76 175.192C163.696 175.32 163.632 175.384 163.504 175.384Z" fill="#FF6D00"/>
<path d="M153.392 135.768H90.672C90.544 135.768 90.48 135.704 90.48 135.576C90.48 135.448 90.544 135.384 90.672 135.384H153.392C153.52 135.384 153.584 135.448 153.584 135.576C153.584 135.704 153.52 135.768 153.392 135.768Z" fill="#FF6D00"/>
<path d="M44.144 166.104C43.696 166.616 43.312 167.128 42.928 167.704C41.776 169.304 40.624 171.16 39.6 173.144C37.36 177.304 35.504 181.848 34.224 185.112C34.224 185.112 10.096 188.056 0.23999 180.184C4.07999 172.312 17.968 177.88 27.952 169.88C29.744 168.408 31.472 166.552 32.944 163.992C33.584 162.904 34.224 161.688 34.736 160.344L44.144 166.104Z" fill="#FF827C"/>
<path d="M39.536 173.144C37.936 176.088 36.592 179.224 35.44 181.976C34.992 183.128 34.544 184.152 34.16 185.112C34.16 185.112 10.032 188.056 0.176025 180.184C0.496025 179.48 0.944026 178.904 1.39203 178.392C6.38403 173.144 18.736 177.176 27.888 169.88C30.576 172.376 36.272 173.464 39.536 173.144Z" fill="#404ADD"/>
<path d="M35.44 181.976C34.992 183.128 34.544 184.152 34.16 185.112C34.16 185.112 10.032 188.056 0.176025 180.184C0.496025 179.48 0.944026 178.904 1.39203 178.392C6.89603 181.656 19.952 185.24 35.44 181.976Z" fill="#6893E6"/>
<path d="M11.3759 181.528C11.2479 181.528 11.1839 181.4 11.1839 181.336C11.3759 179.288 10.4159 177.304 8.68792 176.28C8.62392 176.216 8.55992 176.088 8.62392 176.024C8.68792 175.896 8.81592 175.896 8.87992 175.96C10.7359 177.112 11.8239 179.224 11.5679 181.4C11.5679 181.464 11.4399 181.528 11.3759 181.528Z" fill="white"/>
<path d="M11.3761 177.944C11.2481 177.944 11.1841 177.88 11.1841 177.752C11.1841 177.624 11.2481 177.56 11.3761 177.56C17.9041 177.24 24.3041 175.32 29.8721 171.992C29.9361 171.928 30.0641 171.992 30.1281 172.056C30.1921 172.12 30.1281 172.248 30.0641 172.312C24.4321 175.704 17.9681 177.624 11.3761 177.944Z" fill="white"/>
<path d="M44.1441 166.104C43.6961 166.616 43.3121 167.128 42.9281 167.704L32.9441 163.992C33.5841 162.904 34.2241 161.688 34.7361 160.344L44.1441 166.104Z" fill="#0D005A"/>
<path d="M90.48 60.3762C90.48 60.3762 84.9759 56.0882 80.1759 58.2642C75.3759 60.5042 72.304 71.5122 72.304 71.5122C72.304 71.5122 73.9039 72.4722 75.5679 69.0802C77.1679 65.7522 77.552 65.3042 77.552 65.3042C77.552 65.3042 79.152 68.8882 82.032 66.9682C81.968 69.9122 83.2479 71.5122 84.8479 71.3202C84.2719 69.2082 83.7599 63.0642 87.728 64.6642L90.48 60.3762Z" fill="#FF827C"/>
<path d="M77.36 64.7921C77.296 64.7921 77.168 64.7281 77.168 64.6641C76.912 63.7041 76.976 61.8481 77.488 60.7601C77.552 60.6321 77.68 60.6321 77.744 60.6321C77.872 60.6961 77.872 60.8241 77.872 60.8881C77.424 61.8481 77.36 63.6401 77.616 64.5361C77.616 64.6641 77.552 64.7921 77.36 64.7921Z" fill="#E43D4E"/>
<path d="M82.352 66.7121C82.288 66.7121 82.224 66.7121 82.16 66.6481C82.096 66.5841 82.096 66.4561 82.224 66.3921C83.184 65.6881 83.504 64.9841 83.312 64.6641C83.184 64.4721 83.056 64.3441 82.928 64.3441C82.672 64.2801 82.352 64.4081 81.968 64.7281C81.456 65.1121 80.88 65.1761 80.368 64.9201C79.984 64.7281 79.408 64.2801 79.408 62.9361C79.408 62.8081 79.472 62.7441 79.6 62.7441C79.728 62.7441 79.792 62.8081 79.792 62.9361C79.792 63.7681 80.048 64.3441 80.496 64.6001C80.88 64.7921 81.328 64.7281 81.648 64.4081C82.096 64.0241 82.544 63.8961 82.928 63.9601C83.184 64.0241 83.44 64.2161 83.632 64.4721C83.952 65.0481 83.504 65.9441 82.416 66.7761C82.48 66.7121 82.416 66.7121 82.352 66.7121Z" fill="#E43D4E"/>
<path d="M112.624 54.04L94.6401 39.384C90.2881 35.8 90.0961 29.208 94.2561 25.432L108.144 12.696L116.336 25.24L111.344 29.912C109.424 31.704 109.616 34.84 111.728 36.44L118.256 41.304L112.624 54.04Z" fill="#404ADD"/>
<path d="M123.696 2.64811C124.912 0.856111 126.448 -0.039889 127.536 0.408111C128.624 0.920111 127.536 2.32811 127.536 2.32811C127.536 2.32811 128.88 0.280115 130.48 1.43211C132.08 2.58411 130.224 4.37611 130.224 4.37611C130.224 4.37611 131.952 2.52011 133.104 3.54411C134.256 4.56811 133.104 5.97611 133.104 5.97611C133.104 5.97611 134.768 5.52811 135.344 7.00011C135.856 8.40811 133.616 10.3281 133.616 10.3281L125.68 8.60011L123.696 2.64811Z" fill="#FF827C"/>
<path d="M108.848 49.3041C108.784 49.3041 108.784 49.304 108.72 49.24C108.656 49.176 108.592 49.048 108.656 48.9841C109.36 47.9601 110 45.4 109.232 42.968C108.592 40.792 107.056 39.256 104.624 38.296C102 37.272 100.592 36.12 100.208 34.712C99.76 32.984 101.104 31.064 102.64 29.144C103.6 27.928 105.2 25.56 104.432 23.768C103.92 22.552 102.384 21.784 99.888 21.528C99.76 21.528 99.696 21.4 99.696 21.336C99.696 21.208 99.824 21.144 99.888 21.144C102.512 21.4 104.176 22.232 104.752 23.576C105.392 25.048 104.688 27.096 102.896 29.336C101.424 31.192 100.144 32.92 100.592 34.52C100.912 35.736 102.32 36.824 104.752 37.848C107.248 38.808 108.912 40.536 109.616 42.776C110.384 45.336 109.744 48.088 108.976 49.112C108.976 49.304 108.912 49.3041 108.848 49.3041Z" fill="#6893E6"/>
<path d="M109.68 17.2402C106.288 16.3442 105.136 13.0802 106.48 10.7762C107.824 8.47218 109.936 8.21618 111.536 9.24018C110.64 3.48018 117.168 0.792176 120.944 4.37618C121.776 1.17618 128.304 1.56018 128.432 8.21618C133.616 5.72018 140.08 14.8082 131.696 23.7682C130.736 24.7922 130.16 26.2642 130.288 27.6722C130.48 29.9122 130.8 32.7282 130.8 32.7282L121.584 22.6162L109.68 17.2402Z" fill="#0D005A"/>
<path d="M121.712 33.9441L122.544 31.6401L122.416 31.7041C121.968 31.9601 119.92 33.1121 117.424 33.5601C116.208 33.8161 114.992 33.2401 114.416 32.1521C111.856 27.2881 110 21.4641 109.616 17.2401C111.152 17.6881 114.992 16.7921 116.144 14.2961C116.4 15.6401 118.832 17.2401 120.688 14.8721C120.176 18.0721 123.568 20.5681 123.568 20.5681C123.568 20.5681 126.384 16.4081 128.304 19.3521C130.224 22.2321 127.728 24.1521 127.728 24.1521L133.552 36.0561H120.944L121.712 33.9441Z" fill="#FF827C"/>
<path d="M112.624 20.6962C112.496 20.6322 112.432 20.5682 112.432 20.4402C112.752 19.0962 113.904 18.0082 115.248 17.7522C115.376 17.7522 115.44 17.8162 115.504 17.9442C115.504 18.0722 115.44 18.1362 115.312 18.2002C114.096 18.4562 113.072 19.3522 112.816 20.5682C112.816 20.6322 112.752 20.6962 112.624 20.6962Z" fill="#0D005A"/>
<path d="M124.592 23.0003H124.528C124.4 22.9363 124.4 22.8723 124.4 22.7443C124.784 21.5923 125.552 20.6323 126.576 19.9283C126.64 19.8643 126.768 19.8643 126.832 19.9923C126.896 20.0563 126.896 20.1843 126.768 20.2483C125.808 20.8883 125.104 21.7843 124.784 22.8723C124.784 22.9363 124.72 23.0003 124.592 23.0003Z" fill="#0D005A"/>
<path d="M111.408 21.8481C110.128 23.0001 109.68 24.9841 109.488 26.1361C109.424 26.7121 109.872 27.2881 110.448 27.2881C111.28 27.2881 112.56 27.2241 113.84 26.7761L111.408 21.8481Z" fill="#FF827C"/>
<path d="M116.272 29.0163C117.36 28.3763 118.192 27.2883 118.512 26.0723C119.28 26.7123 119.408 27.8003 118.832 28.6323C118.192 29.4003 117.104 29.5283 116.272 29.0163Z" fill="#E43D4E"/>
<path d="M116.848 22.8721C116.72 23.0001 116.592 23.1281 116.464 23.2561C115.632 24.0241 114.48 24.4081 113.328 24.2801C113.264 22.9361 113.776 21.7201 114.608 20.7601C115.376 19.9281 116.464 19.3521 117.68 19.2241C118 20.5041 117.68 21.8481 116.848 22.8721Z" fill="white"/>
<path d="M116.464 23.1923C115.632 23.9603 114.48 24.3443 113.328 24.2163C113.264 22.8723 113.776 21.6563 114.608 20.6963C115.696 21.1443 116.4 22.1043 116.464 23.1923Z" fill="#0D005A"/>
<path d="M125.68 29.3362C125.68 29.3362 125.488 32.2162 121.712 33.9442L122.544 31.6402C124.208 30.7442 125.68 29.3362 125.68 29.3362Z" fill="#0D005A"/>
<path d="M110.576 12.1202C109.872 12.1202 109.232 11.9282 108.656 11.7362C108.016 11.5442 107.44 11.3522 106.864 11.4162C106.736 11.4802 106.672 11.3522 106.672 11.2242C106.672 11.0962 106.736 11.0322 106.864 11.0322C107.504 10.9682 108.144 11.1602 108.784 11.3522C109.936 11.7362 111.088 12.1202 112.56 11.0322C113.648 10.2642 113.84 8.92023 114.032 7.51223C114.288 5.52823 114.608 3.48023 117.744 3.03223C117.872 3.03223 117.936 3.09622 118 3.22422C118 3.35222 117.936 3.41622 117.808 3.48022C114.992 3.86422 114.736 5.72022 114.48 7.64022C114.288 9.04822 114.096 10.5202 112.816 11.4162C111.984 11.9282 111.28 12.1202 110.576 12.1202Z" fill="#404ADD"/>
<path d="M130.48 24.4722C130.416 24.4722 130.352 24.4082 130.288 24.3442C130.288 24.2802 129.648 23.0002 131.376 19.0962C132.08 17.4322 132.08 16.0242 131.376 15.1922C130.672 14.3602 129.392 14.1042 128.048 14.4882C124.976 15.3202 122.928 14.5522 121.456 11.9922C120.944 11.1602 120.304 10.6482 119.536 10.5202C118.32 10.3282 116.784 11.0322 115.056 12.5682C112.24 15.0642 109.872 15.9602 107.568 15.3842C107.44 15.3842 107.376 15.2562 107.44 15.1282C107.44 15.0002 107.568 14.9362 107.696 15.0002C109.872 15.5762 112.112 14.6802 114.8 12.3122C116.656 10.6482 118.256 9.94425 119.6 10.1362C120.496 10.2642 121.264 10.8402 121.776 11.8002C123.184 14.1682 125.04 14.8722 127.92 14.1042C129.456 13.6562 130.864 13.9762 131.696 14.9362C132.528 15.9602 132.592 17.4962 131.76 19.2882C130.16 22.9362 130.672 24.1522 130.672 24.1522C130.736 24.2802 130.672 24.3442 130.608 24.4082C130.544 24.4722 130.544 24.4722 130.48 24.4722Z" fill="#404ADD"/>
<path d="M127.216 12.8242C126.448 12.8242 125.616 12.5042 124.784 11.7362C123.376 10.3282 123.952 8.66424 124.464 7.00024C124.912 5.52824 125.424 4.18424 124.464 3.09624C124.4 3.03224 124.4 2.90424 124.464 2.84024C124.528 2.77624 124.656 2.77624 124.72 2.84024C125.808 4.12024 125.296 5.65623 124.784 7.12823C124.272 8.72823 123.76 10.2002 124.976 11.4162C126.832 13.2082 128.56 12.1842 130.224 11.2242C131.248 10.5842 132.272 10.0082 133.168 10.3282C133.744 10.5202 134.192 10.9682 134.576 11.8002C134.64 11.9282 134.576 11.9922 134.448 12.0562C134.32 12.1202 134.256 12.0562 134.192 11.9282C133.872 11.2242 133.488 10.7762 132.976 10.6482C132.208 10.3922 131.312 10.9682 130.352 11.5442C129.52 12.1842 128.432 12.8242 127.216 12.8242Z" fill="#404ADD"/>
<path d="M120.752 7.38415C120.368 7.38415 120.112 7.19215 119.984 6.87215C119.792 6.36015 119.984 5.52815 120.816 4.69615L121.008 4.50415L121.136 4.69615C121.712 5.59215 121.904 6.36015 121.648 6.87215C121.456 7.25615 121.136 7.38415 120.752 7.38415ZM120.944 5.20815C120.368 5.78415 120.24 6.42415 120.368 6.74415C120.432 6.93615 120.56 7.00015 120.752 7.00015C120.944 7.00015 121.2 7.00015 121.328 6.74415C121.392 6.55215 121.52 6.10415 120.944 5.20815Z" fill="#404ADD"/>
<path d="M127.472 10.9042C127.28 10.9042 127.152 10.8402 126.96 10.7762C126.64 10.6482 126.512 10.3282 126.512 10.0082C126.576 9.49624 127.088 8.79224 128.176 8.40824L128.432 8.34424L128.496 8.60024C128.688 9.68824 128.496 10.4562 128.048 10.7762C127.856 10.8402 127.664 10.9042 127.472 10.9042ZM128.112 8.85624C127.344 9.17624 126.96 9.68824 126.96 10.0082C126.96 10.2002 127.024 10.3282 127.152 10.3922C127.28 10.4562 127.536 10.5842 127.792 10.3922C127.92 10.3282 128.176 10.0082 128.112 8.85624Z" fill="#404ADD"/>
<path d="M110.704 27.4802C110.64 27.4802 110.512 27.4802 110.448 27.4802C110.128 27.4802 109.744 27.2882 109.552 27.0322C109.36 26.7762 109.232 26.3922 109.296 26.0722C109.488 24.9842 109.936 22.8722 111.28 21.6562C111.344 21.5922 111.472 21.5922 111.536 21.6562C111.6 21.7202 111.6 21.8482 111.536 21.9122C110.256 23.0642 109.808 25.0482 109.68 26.0722C109.616 26.3282 109.68 26.5202 109.872 26.7122C110 26.9042 110.256 26.9682 110.448 27.0322C111.28 27.0322 112.496 26.9682 113.776 26.5202C113.904 26.4562 113.968 26.5202 114.032 26.6482C114.096 26.7762 114.032 26.8402 113.904 26.9042C112.688 27.3522 111.536 27.4802 110.704 27.4802Z" fill="#0D005A"/>
<path d="M135.536 43.0322V38.1682C135.536 36.7602 134.384 35.5442 132.912 35.5442H118.832C117.424 35.5442 116.208 36.6962 116.208 38.1682V44.0562C111.6 49.4962 108.976 56.3442 108.656 63.5122C106.736 62.4882 104.624 61.7842 102.448 61.4002C100.656 61.1442 98.8641 61.4002 97.2001 62.1042L92.0161 59.0962C91.3121 58.7122 90.4161 58.9042 90.0321 59.6082L86.5121 65.6242C86.1281 66.3282 86.3201 67.2242 87.0241 67.6082L91.4401 70.1682C91.2481 72.6002 91.9521 75.0322 93.6161 76.9522C97.8401 81.8162 105.328 85.9762 112.24 87.7042C112.368 87.7042 112.432 87.7682 112.56 87.7682L112.24 89.5602L136.88 96.4082C140.016 84.1202 141.232 68.6322 139.888 58.9682L140.528 57.2402C142.704 51.6082 140.208 45.7202 135.536 43.0322Z" fill="#404ADD"/>
<path d="M137.008 87.5121C133.36 87.5121 132.656 85.4641 131.76 82.9041C130.992 80.6641 130.096 78.1041 126.96 76.0561C123.696 73.9441 119.792 75.9281 116.016 77.8481C111.856 79.9601 107.504 82.1361 104.496 78.4241C101.424 74.7121 102.96 71.3201 104.112 68.5681C105.2 66.0721 106.096 64.0881 103.728 62.5521C103.664 62.4881 103.6 62.3601 103.664 62.2961C103.728 62.2321 103.856 62.1681 103.92 62.2321C106.544 64.0241 105.52 66.3281 104.432 68.7601C103.216 71.5761 101.808 74.7121 104.752 78.2321C107.632 81.6881 111.6 79.7041 115.824 77.5281C119.728 75.5441 123.76 73.5601 127.216 75.7361C130.48 77.8481 131.44 80.6001 132.208 82.7761C133.104 85.4001 133.808 87.3201 137.712 87.0641C137.84 87.0641 137.904 87.1281 137.904 87.2561C137.904 87.3841 137.84 87.4481 137.712 87.4481C137.456 87.5121 137.2 87.5121 137.008 87.5121Z" fill="#6893E6"/>
<path d="M132.784 73.7521C132.72 73.7521 132.656 73.7521 132.592 73.6881C131.376 71.9601 130.928 67.9921 132.72 63.5121C133.68 61.1441 133.488 58.7761 132.208 57.8161C130.864 56.7921 128.624 57.3681 125.872 59.4161C121.648 62.5521 119.472 61.8481 118.576 61.2081C117.232 60.2481 116.912 58.1361 117.68 55.8961C118.64 53.0801 118.64 50.9041 117.616 50.0081C116.784 49.2401 115.248 49.2401 113.136 50.0721C113.008 50.1361 112.944 50.0721 112.88 49.9441C112.816 49.8161 112.88 49.7521 113.008 49.6881C115.312 48.7921 116.976 48.7921 117.936 49.7521C119.472 51.2241 118.704 54.3601 118.128 56.0881C117.424 58.2001 117.744 60.1201 118.896 60.9521C120.304 61.9761 122.8 61.3361 125.744 59.1601C129.648 56.2161 131.696 56.9201 132.528 57.5601C133.936 58.6481 134.192 61.1441 133.168 63.7681C131.312 68.4401 132.016 72.1521 132.976 73.5601C133.04 73.6241 133.04 73.7521 132.912 73.8161C132.848 73.7521 132.848 73.7521 132.784 73.7521Z" fill="#6893E6"/>
<path d="M117.232 72.7281C117.104 72.7281 117.04 72.6641 117.04 72.6001C116.464 70.4881 111.664 65.9441 109.36 64.2801C109.296 64.2161 109.232 64.0881 109.296 64.0241C109.36 63.9601 109.488 63.8961 109.552 63.9601C111.472 65.3681 116.08 69.5281 117.168 72.0241L126.128 50.4561C126.192 50.3281 126.32 50.3281 126.384 50.3281C126.512 50.3921 126.512 50.5201 126.512 50.5841L117.36 72.6001C117.36 72.7281 117.296 72.7281 117.232 72.7281Z" fill="white"/>
<path d="M95.152 63.7682C95.088 63.7682 95.088 63.7682 95.024 63.7682L90.672 61.2722C90.544 61.2082 90.544 61.0802 90.608 61.0162C90.672 60.8882 90.8 60.8882 90.864 60.9522L95.216 63.4482C95.344 63.5122 95.344 63.6402 95.28 63.7042C95.28 63.7042 95.216 63.7682 95.152 63.7682Z" fill="#6893E6"/>
<path d="M93.8719 65.9442C93.8079 65.9442 93.8079 65.9442 93.7439 65.9442L89.3919 63.4482C89.2639 63.3842 89.2639 63.2562 89.3279 63.1922C89.3919 63.0642 89.5199 63.0642 89.5839 63.1282L93.9359 65.6242C94.0639 65.6882 94.0639 65.8162 93.9999 65.8802C93.9999 65.9442 93.9359 65.9442 93.8719 65.9442Z" fill="#6893E6"/>
<path d="M92.6561 67.9921C92.5921 67.9921 92.5921 67.9921 92.5281 67.9921L88.1761 65.4961C88.0481 65.4321 88.0481 65.3041 88.1121 65.2401C88.1761 65.1121 88.3041 65.1121 88.3681 65.1761L92.7201 67.6721C92.8481 67.7361 92.8481 67.8641 92.7841 67.9281C92.7841 67.9281 92.7201 67.9921 92.6561 67.9921Z" fill="#6893E6"/>
<path d="M119.152 42.5201C119.024 42.5201 118.96 42.3921 118.96 42.2641L119.536 37.6561C119.536 37.5281 119.664 37.4641 119.792 37.4641C119.92 37.4641 119.984 37.5921 119.984 37.7201L119.408 42.3281C119.344 42.4561 119.28 42.5201 119.152 42.5201Z" fill="#6893E6"/>
<path d="M123.312 42.5201C123.184 42.5201 123.12 42.3921 123.12 42.2641L123.696 37.6561C123.696 37.5281 123.824 37.4641 123.952 37.4641C124.08 37.4641 124.144 37.5921 124.144 37.7201L123.568 42.3281C123.504 42.4561 123.44 42.5201 123.312 42.5201Z" fill="#6893E6"/>
<path d="M127.472 42.5201C127.344 42.5201 127.28 42.3921 127.28 42.2641L127.856 37.6561C127.856 37.5281 127.984 37.4641 128.112 37.4641C128.24 37.4641 128.304 37.5921 128.304 37.7201L127.728 42.3281C127.664 42.4561 127.6 42.5201 127.472 42.5201Z" fill="#6893E6"/>
<path d="M131.632 42.5201C131.504 42.5201 131.44 42.3921 131.44 42.2641L132.016 37.6561C132.016 37.5281 132.144 37.4641 132.272 37.4641C132.4 37.4641 132.464 37.5921 132.464 37.7201L131.888 42.3281C131.824 42.4561 131.76 42.5201 131.632 42.5201Z" fill="#6893E6"/>
<path d="M136.752 91.288L124.656 88.152C124.528 88.152 124.464 88.024 124.528 87.896C124.528 87.768 124.656 87.704 124.784 87.768L136.816 90.84C136.944 90.84 137.008 90.968 136.944 91.096C136.944 91.224 136.816 91.288 136.752 91.288Z" fill="white"/>
<path d="M128.496 84.7601C130.16 83.2241 131.504 81.3681 132.272 79.1281L138.608 62.2961C138.288 72.9841 136.56 80.4721 128.496 84.7601Z" fill="#0D005A"/>
<path d="M118.768 88.6641C118.704 88.6641 118.64 88.6641 118.576 88.6641C116.848 88.6641 115.248 88.5361 113.84 88.2801C113.712 88.2801 113.648 88.1521 113.648 88.0241C113.648 87.8961 113.776 87.8321 113.904 87.8321C115.312 88.0881 116.848 88.2161 118.576 88.2161C118.64 88.2161 118.704 88.2161 118.768 88.2161C124.656 88.2161 129.968 84.5681 132.08 79.0001L138.992 60.6961C139.056 60.5681 139.12 60.5681 139.248 60.5681C139.376 60.6321 139.376 60.6961 139.376 60.8241L132.464 79.1281C130.288 84.8881 124.848 88.6641 118.768 88.6641Z" fill="white"/>
<path d="M72.1762 26.8401C65.2642 26.8401 59.6322 32.4721 59.6322 39.3841C59.6322 41.3681 60.0802 43.2241 60.9122 44.8881L55.7922 50.7761L63.4082 48.3441C65.6482 50.5841 68.7842 51.9921 72.2402 51.9921C79.1522 51.9921 84.7842 46.3601 84.7842 39.4481C84.7842 32.4721 79.1522 26.8401 72.1762 26.8401Z" fill="white"/>
<path d="M72.1761 52.1842C68.8481 52.1842 65.7121 50.9042 63.2801 48.6002L55.0881 51.2242L60.5921 44.8882C59.7601 43.1602 59.3761 41.3042 59.3761 39.4482C59.3761 32.4082 65.0721 26.7122 72.1121 26.7122C79.1521 26.7122 84.8481 32.4082 84.8481 39.4482C84.9761 46.4882 79.2161 52.1842 72.1761 52.1842ZM63.4081 48.1522L63.4721 48.2162C65.7761 50.5202 68.9121 51.8002 72.1761 51.8002C78.9601 51.8002 84.5281 46.2322 84.5281 39.4482C84.5281 32.6642 78.9601 27.0962 72.1761 27.0962C65.3281 27.0962 59.8241 32.6642 59.8241 39.4482C59.8241 41.3042 60.2721 43.1602 61.1041 44.8242L61.1681 44.9522L56.4321 50.3922L63.4081 48.1522Z" fill="#6893E6"/>
<path d="M78.0642 41.4962C76.9762 44.6322 73.5842 46.3602 70.3842 45.2722C67.2482 44.1842 65.5202 40.7922 66.6082 37.5922C67.6962 34.4562 71.0882 32.7282 74.2882 33.8162C77.4882 34.9042 79.1522 38.2962 78.0642 41.4962Z" fill="#FF6D00"/>
<path d="M78.5122 41.6242C77.4242 44.7602 74.0322 46.4882 70.8322 45.4002C67.6962 44.3122 65.9682 40.9202 67.0562 37.7202C68.1442 34.5842 71.5362 32.8562 74.7362 33.9442C77.9362 35.0322 79.6002 38.4882 78.5122 41.6242Z" fill="#FFAE01"/>
<path d="M75.5681 38.5521H73.5841C73.5841 38.1041 73.1361 37.9761 72.8161 37.9761C72.6241 37.9761 72.0481 37.9761 72.0481 38.3601C72.0481 39.1921 75.6961 38.2961 75.6961 40.6641C75.6961 42.0721 74.6081 42.5841 73.2641 42.6481L73.3281 44.1201H72.1121L72.1761 42.6481C70.9601 42.5201 69.8081 41.9441 69.8081 40.6641H71.7921V40.7281C71.7921 41.3041 72.4321 41.3681 72.7521 41.3681C73.0721 41.3681 73.6481 41.3681 73.6481 40.9201C73.6481 40.0881 70.0001 40.8561 70.0001 38.6161C70.0001 37.3361 71.0241 36.8241 72.2401 36.6961L72.1761 35.2241H73.3921L73.3281 36.6961C74.4801 36.8241 75.5681 37.3361 75.5681 38.5521Z" fill="white"/>
<path d="M90.2241 75.864H65.3921V78.68H90.2241C90.9921 78.68 91.6321 78.04 91.6321 77.272C91.6321 76.504 90.9921 75.864 90.2241 75.864Z" fill="#404ADD"/>
<path d="M47.9841 50.5842H25.8401L46.5121 78.6802H68.6561L47.9841 50.5842Z" fill="#404ADD"/>
<path d="M48.624 63.384C50.672 66.328 51.376 68.696 50.16 68.696C48.944 68.696 46.32 66.328 44.272 63.384C42.224 60.44 41.52 58.072 42.736 58.072C43.888 58.072 46.576 60.44 48.624 63.384Z" fill="white"/>
<path d="M136.88 96.4081C136.88 96.4081 135.536 106.072 128.432 115.864L77.04 115.736C77.04 115.736 67.184 133.08 56.88 157.592C55.856 159.96 54.8321 162.456 53.872 165.016C53.1681 166.744 52.5281 168.472 51.8241 170.264C51.8241 170.264 34.0321 164.056 25.9041 154.648C25.9041 154.648 34.928 119.448 52.336 94.9361C55.344 90.7121 60.016 88.0241 65.2 87.5761C75.12 86.6161 93.104 85.9121 112.24 89.6881L136.88 96.4081Z" fill="#E43D4E"/>
<path d="M56.9441 157.592C55.9201 159.96 54.8961 162.456 53.9361 165.016C51.6961 159.192 47.1521 142.68 46.6401 130.648L56.9441 157.592Z" fill="#0D005A"/>
<path d="M36.016 157.784C35.888 157.784 35.824 157.656 35.824 157.528C36.784 152.664 40.048 139.16 50.352 118.616C63.024 93.5281 86.448 100.952 97.712 104.6L98.352 104.792C109.744 108.376 123.184 106.776 127.664 95.0001C127.728 94.8721 127.792 94.8721 127.92 94.8721C128.048 94.9361 128.048 95.0001 128.048 95.1281C123.44 107.16 109.744 108.824 98.224 105.176L97.584 104.984C86.448 101.4 63.216 94.0401 50.736 118.808C40.432 139.224 37.168 152.728 36.208 157.592C36.208 157.72 36.144 157.784 36.016 157.784Z" fill="#FFAE01"/>
<path d="M93.8721 88.4722C86.7041 89.7522 81.9681 92.5042 77.8721 96.0242C78.8321 102.296 79.8561 109.464 79.2161 115.736H75.8881L71.1521 92.2482L93.8721 88.4722Z" fill="#0D005A"/>
<path d="M74.544 95.0642C79.856 115.224 82.928 136.024 83.568 156.888C75.632 161.88 66.032 163.736 56.816 162.072C45.744 139.608 42.288 114.2 46.96 89.6242C47.6 86.4242 49.136 83.4802 51.696 81.4962C51.76 81.4962 51.76 81.4322 51.76 81.4322C53.808 79.8322 56.368 78.9362 58.992 78.8082C74.608 78.0402 90.16 81.3042 104.176 88.2802C93.872 87.3202 83.44 89.6882 74.544 95.0642Z" fill="#E43D4E"/>
<path d="M83.6321 156.888C75.6961 161.88 66.0961 163.736 56.8801 162.072C64.6241 156.504 74.3521 154.648 83.6321 156.888Z" fill="#0D005A"/>
<path d="M70.3839 152.344C70.2559 152.344 70.1919 152.28 70.1919 152.152C70.6399 133.4 67.9519 114.84 62.1919 97.0483C61.4239 94.5523 61.7439 91.8643 63.0879 89.6243C64.4319 87.3843 66.7359 85.8483 69.2959 85.4643C79.2159 83.8643 89.1359 84.2483 98.8639 86.6163C98.9919 86.6163 99.0559 86.7443 98.9919 86.8723C98.9919 87.0003 98.8639 87.0643 98.7359 87.0003C89.0719 84.6323 79.1519 84.3123 69.2959 85.8483C66.8639 86.2323 64.6879 87.7043 63.3439 89.8163C62.0639 91.9283 61.7439 94.4883 62.5119 96.8563C68.2719 114.712 70.9599 133.336 70.5119 152.088C70.5759 152.216 70.5119 152.344 70.3839 152.344Z" fill="#FFAE01"/>
<path d="M78.704 171.8C75.952 176.856 64.432 189.848 55.6 187.992C54.192 187.736 53.232 186.52 53.104 185.112C52.464 176.92 63.792 174.424 65.52 167.704C65.648 167.32 65.712 167 65.776 166.616C66.8 161.624 65.904 158.168 65.904 158.168C65.904 158.168 69.552 156.376 75.632 156.44C75.76 157.656 75.888 159.256 76.144 160.856C76.656 164.824 77.488 169.368 78.704 171.8Z" fill="#FF827C"/>
<path d="M78.7041 171.8C75.9521 176.856 64.432 189.848 55.6 187.992C54.192 187.736 53.2321 186.52 53.1041 185.112C53.0401 184.536 53.04 184.024 53.168 183.576C54 176.6 63.9201 173.976 65.5841 167.704C65.7121 167.32 65.776 167 65.84 166.616C68.528 166.488 74.3521 165.016 76.1441 160.856C76.5281 163.672 77.04 166.808 77.808 169.304C78.064 170.264 78.3841 171.096 78.7041 171.8Z" fill="#404ADD"/>
<path d="M78.7041 171.8C75.9521 176.856 64.432 189.848 55.6 187.992C54.192 187.736 53.2321 186.52 53.1041 185.112C53.0401 184.536 53.04 184.024 53.168 183.576C53.68 186.584 58.032 186.456 62.576 184.152C67.056 181.912 74.864 174.744 77.808 169.304C78.064 170.264 78.3841 171.096 78.7041 171.8Z" fill="#6893E6"/>
<path d="M62.384 183.704C62.256 183.704 62.192 183.64 62.192 183.512C61.744 180.696 59.248 178.712 56.432 178.904C56.304 178.904 56.24 178.84 56.24 178.712C56.24 178.584 56.304 178.52 56.432 178.52C56.56 178.52 56.688 178.52 56.816 178.52C59.696 178.52 62.192 180.568 62.64 183.448C62.576 183.576 62.512 183.704 62.384 183.704Z" fill="white"/>
<path d="M59.9521 178.904C59.8881 178.904 59.8881 178.904 59.8241 178.84C59.7601 178.776 59.7601 178.648 59.8241 178.584C61.5521 176.536 63.2801 175 64.8161 173.656C67.5681 171.16 69.6161 169.368 69.6801 166.552C69.6801 166.424 69.7441 166.36 69.8721 166.36C70.0001 166.36 70.0641 166.488 70.0641 166.552C70.0001 169.496 67.9521 171.352 65.0721 173.912C63.5361 175.256 61.8721 176.792 60.1441 178.84C60.0801 178.904 60.0161 178.904 59.9521 178.904Z" fill="white"/>
<path d="M50.6721 150.616C50.6081 150.616 50.4801 150.552 50.4801 150.488C47.6001 139.864 44.6561 123.032 44.7841 111.448C44.7841 111.32 44.8481 111.256 44.9761 111.256C45.1041 111.256 45.1681 111.32 45.1681 111.448C45.0401 123.032 47.9201 139.864 50.8641 150.424C50.8641 150.488 50.8001 150.616 50.6721 150.616Z" fill="#0D005A"/>
<path d="M128.176 94.2321L112.24 89.8161C112.112 89.8161 112.048 89.6881 112.112 89.5601C112.112 89.4321 112.24 89.3681 112.368 89.4321L128.24 93.8481C128.368 93.8481 128.432 93.9761 128.368 94.1041C128.368 94.1681 128.24 94.2321 128.176 94.2321Z" fill="#0D005A"/>
<path d="M111.408 51.9281H111.344C111.216 51.8641 111.216 51.7361 111.216 51.6721C111.408 51.1601 113.392 46.5521 116.016 43.9281V41.1761C116.016 41.0481 116.08 40.9841 116.208 40.9841C116.336 40.9841 116.4 41.0481 116.4 41.1761V44.0561C116.4 44.1201 116.4 44.1841 116.336 44.1841C113.712 46.7441 111.792 51.3521 111.536 51.8641C111.6 51.9281 111.472 51.9281 111.408 51.9281Z" fill="#0D005A"/>
<path d="M51.504 167.128C51.44 167.128 51.44 167.128 51.504 167.128C42.672 164.44 34.608 159.64 28.016 153.304C27.952 153.24 27.952 153.112 28.016 153.048C28.08 152.984 28.208 152.984 28.272 153.048C34.8 159.32 42.864 164.056 51.568 166.744C51.696 166.744 51.76 166.872 51.696 167C51.632 167.064 51.568 167.128 51.504 167.128Z" fill="#FFAE01"/>
<path d="M57.456 158.936C57.392 158.936 57.328 158.936 57.264 158.872C57.2 158.808 57.2 158.68 57.328 158.616C64.688 153.56 73.776 152.024 82.416 154.328C82.544 154.328 82.608 154.456 82.544 154.584C82.544 154.712 82.416 154.776 82.288 154.712C73.84 152.408 64.816 153.944 57.52 158.936C57.584 158.936 57.52 158.936 57.456 158.936Z" fill="#FFAE01"/>
<path d="M80.9441 92.632C80.8801 92.632 80.8161 92.568 80.7521 92.504C80.6881 92.376 80.7521 92.312 80.8161 92.248C82.9921 91.16 90.3521 87.832 99.0561 87.832C99.5681 87.832 100.016 87.832 100.528 87.896C100.656 87.896 100.72 88.024 100.72 88.088C100.72 88.216 100.592 88.28 100.528 88.28C100.016 88.28 99.5681 88.216 99.0561 88.216C90.4161 88.216 83.1201 91.544 81.0081 92.632C81.0081 92.632 81.0081 92.632 80.9441 92.632Z" fill="#0D005A"/>
</svg>
