<?xml version="1.0" encoding="UTF-8"?>
<!DOCTYPE svg PUBLIC "-//W3C//DTD SVG 1.1//EN" "http://www.w3.org/Graphics/SVG/1.1/DTD/svg11.dtd">
<!-- Creator: CorelDRAW 2017 -->
<svg xmlns="http://www.w3.org/2000/svg" xml:space="preserve" width="182.991mm" height="35.1858mm" version="1.1" style="shape-rendering:geometricPrecision; text-rendering:geometricPrecision; image-rendering:optimizeQuality; fill-rule:evenodd; clip-rule:evenodd"
viewBox="0 0 17904975 3442799"
 xmlns:xlink="http://www.w3.org/1999/xlink">
 <defs>
  <style type="text/css">
   <![CDATA[
    .fil2 {fill:#046A38}
    .fil1 {fill:#FF671F}
    .fil0 {fill:white}
   ]]>
  </style>
 </defs>
 <g id="Layer_x0020_1">
  <metadata id="CorelCorpID_0Corel-Layer"/>
  <g id="_1864112491216">
   <path class="fil0" d="M0 3441595l0 -177385 6018 -28092c5616,-20469 10832,-46154 16057,-76653 5616,-34510 10430,-77455 14853,-129226 4413,-53375 8023,-117190 10430,-191025 2407,-75850 3611,-164137 3611,-265672l0 -1186298c0,-101535 -1204,-189822 -3611,-265672 -2006,-73845 -5616,-138051 -10430,-191828 -4413,-51770 -9227,-95116 -14853,-130028 -5215,-30499 -10430,-56183 -16057,-76653l-6018 -20871 0 -177385 155713 -7221 591158 -20 0 177385 -6018 28092c-6018,21272 -11634,47759 -17260,79461 -5616,33708 -10430,75449 -14452,125615 -4413,54980 -8023,119999 -10430,195047 -3209,75449 -4413,163736 -4413,264469l0 1186298c0,101134 1605,189019 4413,264469 2808,75048 6419,139656 10430,193843 3611,49765 8425,91506 14452,124813 5616,31301 11233,57788 17260,79461l6018 20871 0 177385 -155713 7221 -591158 0 0 -401z"/>
   <path class="fil0" d="M2387860 3441595l0 -177385 6018 -28092c6018,-21272 11634,-47759 17260,-79461 5616,-33708 10430,-75048 14452,-124813 4413,-54177 8023,-118795 10430,-193843 3209,-75449 4413,-163736 4413,-264469l0 -515699c0,-151300 -32103,-220731 -59393,-252434 -34510,-40538 -78257,-58590 -140458,-58590 -14853,0 -41340,2808 -81467,16458 -40939,13650 -83071,32505 -125615,55381 -45753,24481 -90703,52573 -136045,85077 -27690,19667 -54177,40137 -80263,61800l-2407 169763 0 438645c0,101535 1204,189822 3611,265672 2006,73845 5616,137650 10430,191025 4413,51369 9227,94314 14853,129226 5215,30499 10430,56183 16057,76653l6018 20871 0 177385 -155713 7221 -576696 10 0 -177385 6018 -28092c6018,-21272 11634,-47759 17260,-79461 5616,-33708 10430,-75048 14452,-124813 4413,-54177 8023,-118795 10430,-193843 3209,-75449 4413,-163736 4413,-264469l0 -441052c0,-101134 -1605,-189019 -4413,-264469 -2808,-75048 -6419,-139656 -10430,-193833 -3611,-49765 -8425,-91506 -14452,-124813 -5616,-31301 -11233,-57788 -17260,-79461l-6018 -20871 0 -177385 155713 -7221 576686 0 0 130028c24481,-14452 48561,-27690 73443,-40538 70234,-36516 141672,-66222 215105,-88688 79060,-24481 158120,-36917 235575,-36917 118394,0 223138,22074 310623,65420 86682,42945 159323,101134 215506,172973 54177,69432 94314,149695 118795,237982 22475,81858 33708,165732 33708,250017l0 619641c0,101535 1204,189822 3611,265672 2006,73845 5616,137650 10430,191025 4413,51369 9227,94314 14853,129226 5215,30499 10430,56183 16057,76653l6018 20871 0 177385 -155713 7221 -576696 0 802 -1204z"/>
   <path class="fil0" d="M4618011 3441595c-162934,0 -314233,-26086 -449075,-77455 -138051,-52573 -258050,-129627 -356777,-229156 -98326,-99128 -174978,-220330 -227551,-359986 -51369,-136848 -77455,-290956 -77455,-458312 0,-157317 28493,-305809 84676,-441453 56584,-136045 136848,-256034 238784,-356366 101535,-100332 223540,-179793 362393,-235575 138452,-55782 290956,-84275 453899,-84275 58590,0 116789,4814 175380,14853 57788,9628 113971,23679 168961,42142 15254,4814 30098,10430 44951,16057l0 -30900c0,-101535 -1204,-189822 -3611,-265672 -2006,-73845 -5616,-137650 -10430,-191025 -4413,-51369 -9227,-94314 -14853,-129226 -5215,-30499 -10430,-56183 -16057,-76653l-6018 -20871 0 -177385 155703 -7221 576696 -20 0 177385 -6018 28092c-6018,21272 -11634,47759 -17260,79461 -5616,33708 -10430,75048 -14452,124813 -4413,54177 -8023,118795 -10430,193843 -3209,75449 -4413,163736 -4413,264469l0 1299477c0,101134 1605,189019 4413,264469 2808,75048 6419,139656 10430,193843 3611,49765 8425,91506 14452,124813 5616,31301 11233,57788 17260,79461l6018 20871 0 177385 -155713 7221 -558232 -10 0 -26086c-3209,1204 -6419,2407 -9628,3209 -109157,36917 -235575,55782 -376043,55782zm60205 -1798718c-73845,0 -141672,12847 -202669,38121 -59393,24882 -108355,59383 -150497,105537 -42945,47358 -77455,107954 -102739,179391 -26086,74647 -39334,162532 -39334,261259 0,117592 13248,227551 38933,327482 24481,95116 60596,177787 106750,246015 42945,63404 94314,111163 157317,146486 60997,33708 130830,50567 214303,50567 42945,0 83473,-4814 119999,-14853 39334,-10430 75449,-24080 107553,-40137 32103,-16057 59393,-33307 82670,-51369 7622,-6018 14853,-12035 21673,-18062 1204,-35714 2407,-73845 3209,-115175 1204,-65821 2006,-138452 2006,-217512l0 -649738c-35714,-83473 -82670,-144881 -139656,-183393 -65019,-43747 -136447,-64618 -218726,-64618l-793 0z"/>
   <path class="fil0" d="M6104902 3441595l0 -178990 6820 -28894c5616,-19266 11233,-42945 16859,-71036 5616,-30499 10430,-68228 14452,-113169 4012,-50166 7622,-109558 10430,-178589 3209,-69432 4413,-150497 4413,-243598l0 -408146c0,-93111 -1605,-174176 -4413,-243598 -2808,-69031 -6419,-128423 -10430,-178589 -3611,-45352 -8425,-83071 -14452,-113159 -5616,-28092 -10832,-51770 -16859,-71036l-6820 -22475 0 -178990 155713 -6820 576706 -10 0 178990 -6820 29295c-5616,18464 -10430,40939 -15655,68228 -5616,31692 -10430,70625 -14452,117582 -4413,48962 -8023,107553 -10430,175380 -2407,69833 -3611,151300 -3611,244811l0 408146c0,93512 1204,174978 3611,244811 2006,67827 5616,126016 10430,175380 4413,46956 9227,85880 14452,117592 4814,27289 10029,50166 15655,68629l6820 22475 0 178990 -155713 6820 -576706 -29z"/>
   <path class="fil0" d="M8043295 3441595c-248823,0 -447872,-62602 -591549,-186211 -150899,-129226 -227551,-311024 -227551,-539779 0,-122406 26888,-231964 79060,-325877 49765,-88688 116789,-165742 199460,-228354 77856,-58590 166544,-106750 264469,-143276 91105,-33708 187014,-60596 284537,-79461 95919,-18865 190624,-31702 284136,-38933 32505,-2407 64216,-4413 94715,-6419 -3209,-37720 -10029,-71036 -20068,-99128 -12847,-36516 -30098,-65821 -51770,-87876 -21272,-21272 -46555,-37319 -77054,-48160 -35714,-12847 -76653,-19266 -122005,-19266 -34912,0 -69432,2808 -103140,8826 -33307,5616 -68228,15655 -103942,28894 -38121,14452 -78257,33698 -120400,58179 -44951,26086 -93512,59393 -145683,99930l-84275 64618 -212698 -127621 43346 -138844 148090 -307815 51369 -23278c46956,-21272 93111,-38933 138452,-52172 44549,-13248 89490,-23679 134842,-32103 45753,-8425 91907,-14452 139656,-17661 45753,-3209 93111,-4814 143276,-4814 144480,0 271298,18464 377638,54980 110762,38121 204675,92308 278118,161329 75449,70635 131231,154509 166143,249224 33307,89480 49765,185399 49765,286132l0 594357c0,101134 1605,189019 4413,264469 2808,75048 6419,139656 10430,193843 3611,49765 8425,91506 14452,124813 5616,31301 11233,57788 17260,79461l6018 20871 0 177385 -155713 7221 -558232 10 0 -30499c-44951,16859 -93913,31301 -146486,42544 -64216,13650 -135243,20871 -210291,20871l1213 -411zm389281 -1095213c-49363,2808 -98326,7221 -145683,12436 -85077,9628 -159724,29295 -222737,58189 -53375,24882 -94314,58590 -125615,103541 -28092,40538 -42544,101134 -42544,180194 0,101535 21673,175781 64618,220731 41340,43747 101936,64618 184205,64618 40939,0 77856,-5616 109157,-16057 34912,-12035 65420,-26888 91105,-43747 25283,-16859 46555,-35313 62602,-54177 8826,-10029 16458,-20068 22876,-29696 1204,-33708 2006,-70635 2006,-109960l0 -386473 10 401z"/>
   <rect class="fil0" transform="matrix(0.707105 0.707105 -0.707105 0.707105 6.47082E+06 -4.01118)" width="793817" height="793817"/>
   <path class="fil0" d="M9706760 3441595l0 -177385 6018 -28092c6018,-21272 11634,-47759 17260,-79461 6018,-34109 10832,-76252 15655,-126819 4413,-53375 8023,-117190 10430,-191025 2407,-75850 3611,-164137 3611,-265672l0 -1186298c0,-101535 -1204,-189822 -3611,-265672 -2006,-73845 -5616,-138051 -10430,-191828 -4413,-50968 -9227,-93512 -15655,-127621 -5616,-31301 -11233,-57788 -17260,-79461l-6018 -20871 0 -193843 170967 10029 75048 7221c21673,2407 42945,3611 67025,4012l85077 802c41741,0 98727,-5616 170566,-15655 88688,-12436 197053,-18865 330691,-18865 133638,0 259253,20068 374037,59393 118394,40538 223138,101535 311826,180996 89490,80263 159323,178990 209088,293764 48962,113169 73845,242395 73845,383264 0,187415 -38933,353157 -115586,493615 -75850,139255 -179793,254038 -308216,340319 -125615,84676 -270496,142474 -432226,172571 -83874,15655 -170566,23278 -258451,23278 -18865,0 -38121,0 -56986,-1204l0 131633c0,101134 1605,189019 4413,264469 2808,75048 6419,139656 10430,193843 3611,49765 8425,91506 14452,124813 5616,31301 11233,57788 17260,79461l6018 20871 0 177385 -155713 7221 -592762 10 -802 802zm728808 -1450375c38532,0 75449,-3209 111163,-9227 73443,-13248 133638,-39334 184205,-80664 50567,-41330 89901,-97122 119597,-171368 31702,-79451 48160,-181387 48160,-302991 0,-85077 -8826,-162532 -26086,-230359 -15655,-61399 -38532,-113169 -67426,-153707 -26086,-36115 -58189,-63404 -97523,-83071 -39334,-19667 -89490,-30098 -147288,-30098 -45753,0 -85478,1605 -119597,5616 -13650,1605 -26487,3209 -38121,4413l0 1050654c11233,401 22074,802 33307,802l-391 0z"/>
   <path class="fil0" d="M12903290 3441595c-154108,0 -301797,-26086 -439046,-77455 -139255,-51770 -262463,-127621 -366806,-225144 -105146,-97925 -189411,-217913 -249616,-356777 -60596,-138854 -91506,-295779 -91506,-465934 0,-158120 30098,-307413 89490,-443860 58992,-135644 141261,-254831 244802,-354761 103541,-99930 226749,-178990 366806,-234772 139255,-55782 290554,-83874 449486,-83874 158932,0 304204,26487 442255,78257 139255,52573 262864,128423 367207,225947 105547,98326 189421,218716 249224,358773 59794,139255 90302,296181 90302,465934 0,143677 -25685,283333 -75449,416169 -50968,134441 -127220,255242 -226348,358783 -99529,103541 -221935,186612 -363597,247620 -142474,60997 -306210,91907 -486805,91907l-401 -812zm-36526 -1798718c-63806,0 -119999,11634 -171368,35714 -50968,23679 -94715,57778 -133237,103531 -39735,47358 -71438,107954 -94314,179793 -24481,76252 -36516,165341 -36516,265672 0,117592 12847,228354 38121,328284 24481,95116 59393,177787 105146,245614 42544,63404 93512,111163 155713,146084 60195,33708 130429,50166 214303,50166 63806,0 119597,-12035 171769,-36115 51369,-24080 94314,-58189 132034,-104744 39735,-48962 71839,-110762 94715,-183804 24481,-76653 36516,-166544 36516,-266876 0,-117993 -12436,-228354 -37319,-327883 -23278,-94314 -58189,-175781 -103140,-242395 -41741,-61800 -91907,-108756 -154509,-142865 -60997,-33708 -132435,-50166 -218324,-50166l411 -10z"/>
   <path class="fil1" d="M14386981 3441595l0 -187014 6018 -29696c5616,-20871 10832,-46555 16057,-77054 5616,-32906 10029,-73443 13248,-122406 4012,-53776 7221,-117993 10029,-192640 2808,-73845 4413,-161329 4413,-261259l0 -1288234c0,-99930 -1605,-187415 -4413,-262062 -2808,-73845 -6018,-138051 -10029,-191828 -3209,-48962 -7622,-89490 -13248,-122406 -5215,-30499 -10430,-56183 -16057,-77054l-6018 -22475 0 -187014 155713 -7221 551814 -10 0 186211 -5616 28894c-5616,20469 -10430,46154 -15254,76252 -5215,34109 -9628,76252 -14051,126819 -4413,52974 -7622,115987 -9628,189421 -2006,74246 -3209,162131 -3209,262864l0 1288234c0,100733 1204,188217 3209,263666 2006,72240 5616,135644 9628,188618 4413,50567 8826,92709 14051,126819 4814,30499 9628,55782 15254,76252l5616 21673 0 186211 -155713 7221 -551814 20 0 -802z"/>
   <path class="fil2" d="M15481773 3441595l0 -176984 6018 -28092c6018,-21272 11634,-47759 17260,-79060 5616,-33307 10430,-75048 14452,-124813 4413,-54177 8023,-118795 10430,-193442 3209,-75449 4413,-163335 4413,-264067l0 -1297070c0,-100733 -1605,-188618 -4413,-264067 -2808,-74647 -6419,-139255 -10430,-193442 -3611,-49765 -8425,-91105 -14452,-124813 -5616,-31301 -11233,-57788 -17260,-79060l-6018 -20871 0 -176984 155713 -7221 576706 10 0 176984 -6018 28092c-5616,20469 -10832,46154 -16057,76653 -5616,34510 -10430,77455 -14853,128824 -4413,53375 -8023,116789 -10430,190624 -2407,75850 -3611,164137 -3611,265271l0 1297070c0,101134 1204,189822 3611,265271 2006,73845 5616,137249 10430,190624 4413,51369 9227,94314 14853,128824 5215,30499 10430,56183 16057,76653l6018 20871 0 176984 -155713 7221 -576706 10z"/>
   <path class="fil0" d="M17185795 3441595c-69432,0 -135243,-6820 -196250,-20068 -58992,-12847 -113169,-28894 -162131,-48160 -50567,-20068 -95919,-42142 -136045,-66222 -37319,-22475 -70635,-43747 -99128,-64216l-69432 -49363 30499 -578712 273705 20 55381 123208c9227,43346 23278,83071 40939,117993 16057,31301 34912,56986 57788,78257 22074,20469 46956,36115 75449,48160 27690,11233 58189,16859 92709,16859 73042,0 99128,-24481 107553,-32505 14853,-14452 30499,-34912 30499,-81868 0,-33708 -8826,-63003 -28092,-91907 -28493,-42945 -65821,-85880 -110762,-126819 -52172,-47358 -107954,-95116 -168159,-142875 -67827,-54177 -131633,-111564 -190624,-172973 -64216,-66624 -118795,-141270 -161329,-221133 -47759,-89901 -71839,-191828 -71839,-303803 0,-91907 17661,-178579 52573,-257238 34912,-78659 84676,-147689 147689,-204274 61800,-54980 135243,-98326 217913,-128022 81066,-28894 169763,-43747 264067,-43747 117993,0 215506,12847 299390,38933 79862,25283 140458,50166 182200,73042l75048 41340 31702 530943 -273705 39334 -64216 -124010c-4814,-15655 -13248,-34510 -25685,-54980 -10430,-18062 -25283,-35303 -42945,-51360 -16859,-14853 -38121,-28092 -63806,-38933 -22876,-9227 -50968,-14452 -84676,-14452 -21272,0 -40538,2808 -58189,8826 -14051,4413 -25685,10832 -34912,18865 -7622,6820 -13650,14853 -18865,26086 -4814,10832 -7622,26477 -7622,46144 0,28092 9227,54177 28092,82670 30499,44951 70635,90302 117993,135243 53375,50567 111163,101134 172973,152503 69833,57387 134842,117592 195047,180194 64618,67426 119196,141270 162934,218726 49765,89490 75449,187014 75449,290153 0,80263 -14452,159323 -42544,235575 -29295,79461 -75449,151300 -136447,212698 -60195,61399 -136848,110762 -227551,147288 -89490,35714 -194244,54177 -312227,54177l-411 401z"/>
  </g>
 </g>
</svg>
